<?xml version="1.0" encoding="utf-8" standalone="no"?>
<!DOCTYPE svg PUBLIC "-//W3C//DTD SVG 1.1//EN"
  "http://www.w3.org/Graphics/SVG/1.1/DTD/svg11.dtd">
<!-- Created with matplotlib (http://matplotlib.org/) -->
<svg height="216pt" version="1.1" viewBox="0 0 576 216" width="576pt" xmlns="http://www.w3.org/2000/svg" xmlns:xlink="http://www.w3.org/1999/xlink">
 <defs>
  <style type="text/css">
*{stroke-linecap:square;stroke-linejoin:round;}
  </style>
 </defs>
 <g id="figure_1">
  <g id="patch_1">
   <path d="
M0 216
L576 216
L576 0
L0 0
z
" style="fill:#ffffff;"/>
  </g>
  <g id="axes_1">
   <g id="patch_2">
    <path d="
M72 194.4
L518.4 194.4
L518.4 32.4
L72 32.4
z
" style="fill:#ffffff;"/>
   </g>
   <g id="line2d_1">
    <path clip-path="url(#p01ea7e9bf2)" d="
M512.454 194.37
L513.115 194.359
L513.756 194.397
L514.252 194.308
L514.541 193.896
L514.727 193.336
L514.851 193.156
L514.892 193.298
L515.161 194.146
L515.471 194.337
L516.029 194.385
L516.38 194.206
L516.484 194.11
L516.484 194.11" style="fill:none;stroke:#82dcdc;"/>
   </g>
   <g id="line2d_2">
    <path clip-path="url(#p01ea7e9bf2)" d="
M512.454 194.394
L514.789 194.163
L514.851 194.094
L514.892 194.165
L515.12 194.283
L515.45 194.347
L515.946 194.399
L516.484 194.336
L516.484 194.336" style="fill:none;stroke:#82dcdc;"/>
   </g>
   <g id="line2d_3">
    <path clip-path="url(#p01ea7e9bf2)" d="
M73.5555 177.075
L73.7828 176.904
L73.9275 176.083
L74.1548 174.992
L74.5062 173.918
L74.6095 174.055
L74.6715 174.215
L75.0228 176.431
L75.4155 178.512
L75.7462 178.264
L75.8908 177.746
L76.1182 176.804
L76.2422 176.445
L76.3868 176.228
L76.4695 176.173
L76.5108 176.237
L76.7588 177.628
L77.4202 180.937
L77.4408 180.933
L77.6268 180.766
L78.1848 179.659
L78.5568 177.573
L78.5982 177.642
L78.6602 177.216
L78.7635 175.862
L79.3835 161.519
L79.7348 158.387
L80.1068 156.701
L80.3755 156.398
L80.5408 156.4
L80.7682 156.904
L81.1195 158.358
L81.4088 159.649
L81.4708 159.621
L81.9668 159.543
L82.2768 159.448
L82.5455 159.204
L82.8762 160.04
L83.4755 162.057
L83.6202 161.957
L83.8682 160.764
L84.2402 157.887
L84.5502 156.092
L84.9428 154.327
L85.6455 151.15
L85.9142 150.786
L86.3895 150.565
L86.4722 150.841
L87.3815 154.981
L87.6295 155.093
L87.8362 155.098
L87.9602 154.784
L88.3115 154.132
L88.4975 154.127
L88.7248 154.69
L89.1175 155.617
L89.1795 155.595
L89.2002 155.556
L89.4482 154.851
L89.8202 152.487
L90.0682 151.982
L90.3162 151.429
L90.7915 148.781
L91.0602 144.611
L91.3702 138.377
L91.9695 134.421
L92.3208 132.67
L92.9822 126.068
L93.1682 124.535
L93.7055 118.767
L94.4908 115.122
L94.5115 115.127
L94.7388 115.367
L95.2142 116.097
L95.3382 115.906
L95.7928 115.416
L96.4128 115.086
L96.5575 115.463
L97.1982 118.032
L97.3015 117.907
L97.7562 117.152
L98.3968 115.761
L98.5415 115.904
L98.7275 116.388
L99.1408 117.64
L99.2648 117.519
L99.4715 117.471
L99.7402 117.324
L100.298 116.892
L100.319 116.923
L100.464 117.705
L101.332 122.559
L102.324 122.461
L102.468 123.281
L103.192 128.542
L103.274 128.511
L104.349 128.109
L104.37 128.167
L104.535 129.12
L104.99 133.575
L105.176 135.022
L105.217 134.98
L105.444 134.642
L105.63 134.257
L106.085 133.679
L106.271 133.486
L106.312 133.57
L106.436 134.513
L107.16 141.246
L107.201 141.187
L107.656 140.41
L107.78 138.91
L108.524 123.204
L108.648 122.474
L108.71 122.618
L108.772 122.787
L109.082 123.648
L109.102 123.623
L109.64 122.33
L109.826 120.807
L110.156 115.667
L110.57 103.294
L110.632 103.647
L111.066 106.42
L111.107 106.518
L111.128 106.448
L111.128 106.448
L111.355 105.759
L111.582 105.666
L112.223 105.655
L112.368 106.482
L112.76 112.063
L113.07 115.652
L113.38 115.47
L113.628 115.244
L114.166 114.663
L114.248 114.738
L114.372 115.682
L115.075 123.469
L115.096 123.311
L115.261 122.709
L115.406 122.648
L116.108 122.529
L116.191 122.463
L116.212 122.585
L116.377 125.893
L117.059 140.227
L117.08 140.207
L118.154 138.408
L118.175 138.343
L118.175 138.343
L118.175 138.343
L118.237 139.001
L118.692 148.15
L118.816 147.327
L118.878 146.585
L119.415 138.63
L119.642 137.679
L119.849 137.642
L120.18 137.656
L120.262 138.807
L120.758 156.966
L121.027 167.928
L121.11 167.776
L121.978 165.883
L122.143 165.461
L122.164 165.557
L122.267 168.731
L122.97 193.879
L123.011 193.886
L123.011 193.886
L123.011 193.886
L123.693 191.231
L124.148 189.199
L124.189 189.523
L124.644 193.416
L124.83 193.685
L124.85 193.675
L124.974 193.436
L125.284 191.992
L125.884 188.561
L125.966 186.052
L126.214 179.358
L126.276 179.618
L126.359 179.366
L126.628 183.451
L126.814 188.068
L126.938 191.035
L126.979 190.625
L127.434 187.824
L127.496 187.806
L127.64 187.213
L127.93 187.099
L128.116 186.728
L128.136 186.838
L128.219 188.833
L128.467 194.127
L128.632 194.34
L128.653 194.327
L128.984 194.005
L129.17 193.405
L129.314 193.055
L129.562 192.347
L130.038 190.933
L130.1 190.713
L130.12 190.78
L130.12 190.78
L130.554 193.89
L130.782 194.137
L130.926 194.084
L131.195 193.246
L131.836 190.579
L132.104 189.408
L132.125 189.536
L132.662 193.602
L132.807 193.774
L132.828 193.749
L132.91 193.519
L133.365 190.508
L134.088 186.818
L134.109 186.917
L134.316 190.117
L134.584 192.333
L134.77 192.596
L134.853 192.444
L135.122 190.949
L136.072 185.237
L136.134 185.678
L136.692 191.675
L136.816 191.947
L136.858 191.86
L137.126 190.173
L138.056 184.235
L138.098 184.394
L138.346 188.043
L138.697 191.584
L138.8 191.825
L138.842 191.731
L139.131 189.879
L140.04 184.014
L140.082 184.143
L140.288 187.186
L140.66 191.372
L140.784 191.74
L140.805 191.706
L140.929 190.995
L142.045 183.933
L142.066 184.031
L142.231 186.179
L142.686 191.586
L142.768 191.768
L142.81 191.669
L143.161 189.413
L144.029 184.007
L144.07 184.262
L144.339 188.452
L144.649 191.65
L144.732 191.853
L144.773 191.722
L145.062 189.922
L145.992 184.044
L146.034 184.174
L146.261 187.767
L146.592 191.497
L146.612 191.467
L147.232 174.709
L147.439 173.747
L147.584 173.446
L147.666 172.516
L147.811 168.883
L148.018 163.662
L148.224 156.462
L148.514 147.811
L148.534 148.491
L148.555 148.431
L148.782 153.298
L148.824 153.136
L148.989 152.931
L149.03 152.886
L149.485 150.638
L149.588 150.529
L149.774 150.089
L149.919 149.931
L149.96 149.696
L149.981 149.908
L150.105 155.009
L150.746 187.801
L150.808 187.324
L151.118 186.526
L151.262 186.373
L151.552 184.576
L151.8 184.443
L151.944 184.105
L152.027 186.832
L152.275 194.19
L152.626 194.394
L152.957 194.182
L153.164 193.877
L153.288 193.677
L153.412 193.497
L153.577 190.548
L153.68 188.781
L153.928 184.431
L154.032 183.042
L154.114 183.556
L154.156 184.304
L154.238 186.201
L154.486 191.594
L154.672 193.728
L154.714 193.635
L154.755 193.441
L154.962 192.077
L155.602 179.971
L155.954 177.699
L155.974 177.844
L156.098 180.257
L156.346 190.382
L156.532 193.902
L156.677 194.088
L156.698 194.077
L157.38 193.073
L157.752 192.148
L157.958 191.033
L157.979 191.166
L158.144 193.098
L158.206 192.511
L158.227 192.294
L158.268 192.494
L158.268 192.494
L158.516 193.497
L158.537 193.368
L158.537 193.368
L158.537 193.368
L158.661 193.912
L158.702 193.897
L159.116 191.829
L159.302 187.587
L159.798 159.936
L159.942 158.453
L160.025 149.621
L160.376 96.3895
L160.645 89.519
L161.017 86.2801
L161.368 85.1693
L161.885 84.6639
L161.968 85.7736
L162.36 96.0374
L162.65 104.518
L162.732 104.41
L162.836 104.128
L162.939 103.696
L163.869 99.124
L163.972 100.566
L164.572 114.727
L164.634 114.341
L164.944 112.749
L165.212 112.14
L165.295 111.57
L165.75 108.73
L165.853 108.56
L165.894 108.659
L166.018 110.013
L166.494 118.779
L166.556 118.567
L166.68 117.326
L167.093 115.213
L167.796 115.117
L167.837 115.087
L167.878 115.181
L168.002 116.332
L168.209 120.218
L168.56 125.741
L168.684 125.574
L168.912 123.247
L169.428 113.157
L169.862 108.62
L169.904 108.539
L169.966 108.645
L170.09 109.505
L170.379 112.664
L170.441 112.696
L170.462 112.656
L170.834 111.901
L171.206 111.806
L171.35 111.478
L171.826 110.062
L171.867 110.202
L171.991 112.354
L172.404 126.611
L172.57 129.864
L172.59 129.849
L172.652 129.609
L173.024 124.515
L173.479 122.112
L173.81 121.263
L173.83 121.375
L173.954 122.954
L174.223 132.122
L174.45 137.552
L174.471 137.498
L174.595 134.648
L174.781 132.865
L174.946 132.567
L175.401 132.436
L175.773 131.593
L175.814 131.672
L175.959 133.548
L176.29 138.661
L176.393 139.359
L176.414 139.258
L176.496 138.416
L177.013 131.422
L177.282 130.002
L177.757 129.136
L177.778 129.119
L177.778 129.119
L177.778 129.119
L177.84 129.732
L178.046 136.433
L178.501 153.28
L178.563 153.188
L179.224 152.087
L179.39 151.026
L179.431 150.959
L180.01 141.998
L180.072 142.335
L180.402 145.357
L180.464 144.672
L180.754 140.885
L181.084 139.579
L181.332 138.976
L181.725 137.668
L181.766 137.825
L181.89 141.279
L182.386 161.007
L182.448 160.161
L182.469 160.071
L182.676 156.723
L182.924 155.833
L183.668 155.703
L183.75 155.759
L184.06 158.877
L184.122 158.486
L184.308 156.156
L184.804 140.35
L185.114 137.204
L185.342 136.832
L185.672 136.803
L185.734 136.855
L185.838 137.951
L186.148 142.257
L186.168 142.19
L186.251 140.915
L186.437 133.317
L186.788 118.965
L186.871 117.777
L187.078 98.2481
L187.346 75.4315
L187.615 68.661
L187.718 67.946
L187.78 68.081
L188.235 70.0321
L188.338 70.126
L188.38 70.0742
L188.71 69.5968
L189.206 69.4278
L189.682 69.3295
L189.723 69.3112
L189.764 69.3587
L190.054 70.0348
L190.26 70.9641
L190.281 70.9166
L190.756 68.2997
L191.046 67.8785
L191.666 67.4908
L191.748 67.5945
L191.934 68.674
L192.348 71.7093
L192.43 71.5802
L192.658 71.5052
L192.885 71.4209
L193.05 70.8793
L193.484 69.5758
L193.691 69.1519
L193.732 69.2086
L193.877 69.707
L194.104 70.1309
L194.208 70.0132
L194.311 69.6163
L194.952 65.5182
L195.262 65.4075
L195.654 65.4496
L195.84 66.9109
L196.088 70.376
L196.357 74.1609
L196.419 74.1479
L196.915 73.9411
L197.618 73.069
L197.68 73.4087
L198.01 77.8518
L198.32 83.7005
L198.403 83.6773
L199.168 83.3755
L199.374 83.1146
L199.602 82.9467
L199.664 83.3371
L199.891 87.4849
L200.263 94.9801
L200.304 94.7403
L200.883 91.1493
L200.986 91.0273
L201.296 90.6962
L201.379 90.5791
L201.544 90.4176
L201.606 90.4451
L201.71 91.4971
L202.02 98.8265
L202.288 104.202
L202.309 104.185
L202.495 103.955
L202.619 102.385
L203.074 98.1531
L203.28 97.321
L203.404 97.2486
L203.611 97.3285
L203.714 98.5127
L204.004 105.833
L204.272 111.469
L204.293 111.455
L204.686 111.087
L205.43 110.147
L205.574 109.844
L205.595 109.923
L205.719 111.822
L206.236 121.673
L206.256 121.663
L207.558 119.361
L207.6 119.518
L207.724 121.404
L208.22 132.96
L208.302 132.756
L209.563 129.4
L209.604 129.469
L209.728 130.487
L210.183 136.485
L210.266 136.27
L210.472 135.39
L211.258 132.665
L211.526 131.667
L211.568 131.76
L211.692 133.565
L212.167 141.407
L212.25 141.158
L213.407 137.121
L213.552 136.73
L213.593 136.833
L213.717 137.88
L213.924 141.687
L214.151 144.736
L214.172 144.725
L214.606 143.048
L214.812 140.726
L215.102 135.552
L215.577 130.717
L215.66 131.037
L215.866 132.602
L215.928 132.195
L215.949 131.932
L216.052 131.985
L216.135 131.259
L216.342 129.688
L216.445 129.513
L216.672 127.447
L217.458 111.636
L217.478 111.556
L217.52 111.619
L217.685 113.719
L218.057 118.576
L218.326 117.624
L218.594 115.955
L218.822 111.447
L219.276 96.6735
L219.545 91.8983
L219.586 91.8189
L219.628 91.9026
L220.062 94.3045
L220.144 93.9173
L220.372 92.934
L220.806 92.1861
L221.446 91.6763
L221.529 92.2471
L221.756 95.7847
L222.128 103.619
L222.19 103.531
L222.314 102.672
L222.686 99.2396
L222.976 98.3637
L223.43 97.8053
L223.492 98.2044
L223.844 103.271
L224.092 108.7
L224.154 108.382
L224.588 105.973
L225.022 104.965
L225.249 103.897
L225.497 102.906
L225.538 102.927
L225.662 103.252
L226.014 106.325
L226.117 106.073
L226.303 105.828
L226.613 105.618
L226.82 105.306
L226.944 104.434
L227.13 101.948
L227.44 94.5383
L227.626 92.1148
L227.646 92.1316
L227.977 93.1743
L228.039 92.9475
L228.432 90.3987
L229.052 88.587
L229.382 87.7446
L229.403 87.7673
L229.527 88.918
L229.796 93.6695
L230.044 99.0349
L230.126 99.0009
L230.457 98.8033
L230.54 98.3993
L231.201 93.103
L231.387 92.7931
L231.408 92.8168
L231.49 93.2207
L231.738 96.0541
L232.028 99.4756
L232.069 99.3805
L232.11 99.3103
L232.4 98.6953
L233.33 97.1006
L233.516 96.5693
L233.619 96.7955
L233.929 97.6142
L233.95 97.5942
L234.508 96.8684
L235.396 96.1567
L235.438 96.2599
L235.665 97.4619
L235.954 98.6305
L236.078 98.509
L236.43 98.307
L237.07 98.0381
L237.277 97.7789
L237.38 97.7314
L237.401 97.7697
L237.628 98.8762
L237.918 100.434
L237.98 100.278
L238.31 99.9599
L238.868 99.7623
L239.385 99.5436
L239.406 99.603
L239.633 100.8
L239.881 101.898
L239.902 101.868
L240.873 97.1768
L241.142 96.7464
L241.286 96.593
L241.348 96.5963
L241.39 96.6508
L241.534 97.1881
L241.844 99.2693
L241.886 99.2968
L241.927 99.2336
L242.526 97.3766
L242.857 96.7475
L243.146 96.4381
L243.291 96.336
L243.332 96.4267
L243.477 97.3642
L243.808 99.319
L243.89 99.2439
L244.2 98.2449
L244.614 97.5359
L244.882 97.3771
L245.006 97.1865
L245.254 96.7837
L245.337 96.8868
L245.44 97.1001
L245.502 96.9916
L245.626 96.8117
L245.668 96.856
L245.771 97.5348
L245.916 98.7158
L245.978 98.7082
L246.391 98.5338
L246.536 98.1455
L246.742 98.0014
L246.804 97.9225
L247.28 97.0234
L247.321 97.1617
L247.445 97.5785
L247.838 99.3848
L247.858 99.3778
L248.272 99.0517
L248.788 98.9555
L249.078 98.5403
L249.45 98.0332
L249.574 98.0613
L249.656 97.9274
L249.884 96.6935
L250.256 94.3245
L250.731 93.0469
L250.793 92.9594
L250.958 92.1748
L251.062 88.9763
L251.434 72.4723
L251.93 66.1327
L252.26 65.2234
L252.508 65.1089
L252.736 65.0884
L253.128 64.9836
L253.252 65.0014
L253.418 65.6824
L253.645 66.3638
L253.831 66.6166
L253.872 66.5485
L254.306 66.0371
L254.864 65.6008
L255.526 65.2741
L255.753 65.3168
L256.352 64.8475
L257.22 64.8961
L257.758 66.0377
L257.799 66.0199
L258.15 65.8746
L259.246 65.7563
L259.494 66.3552
L259.742 66.8493
L260.279 66.3352
L260.713 65.7644
L260.961 64.9852
L261.292 63.7664
L261.395 63.8253
L261.498 63.7745
L261.788 63.2497
L262.139 61.1399
L262.552 60.1366
L262.904 59.9567
L263.214 60.0512
L263.4 60.6685
L263.772 61.844
L265.239 61.8311
L265.425 62.3889
L265.735 63.1606
L265.88 63.0887
L266.107 63.0266
L266.19 62.9197
L266.727 62.41
L266.996 62.3338
L267.161 62.3511
L267.368 62.7869
L267.698 63.5569
L267.864 63.4765
L268.132 63.3836
L269.021 63.1811
L269.414 62.5936
L269.455 62.6351
L269.538 62.7037
L269.579 62.6459
L269.682 62.0741
L269.889 58.3859
L270.261 52.4464
L270.488 51.7385
L270.922 51.2309
L271.191 51.2627
L271.398 51.7649
L271.708 52.3454
L271.956 52.2029
L273.237 52.2045
L273.733 52.6576
L274.229 52.5425
L275.056 52.5409
L275.2 52.7186
L275.655 53.6836
L275.717 53.5961
L276.44 52.8174
L276.936 52.7035
L277.143 52.8007
L277.329 53.3039
L277.701 54.2435
L279.106 54.2214
L279.809 55.2685
L280.946 55.0514
L281.111 55.0481
L281.504 55.4553
L281.524 55.4213
L281.814 54.9704
L282.041 54.418
L282.227 51.6731
L282.806 42.4975
L283.054 41.8289
L283.446 41.6707
L283.653 41.6772
L283.984 41.4887
L284.5 41.4401
L285.079 41.5168
L285.286 41.9558
L285.699 42.7172
L287.042 42.7901
L287.58 44.1547
L287.704 44.0354
L288.22 43.7405
L288.944 43.6547
L289.13 44.0462
L289.646 45.3119
L290.142 45.1769
L290.618 45.0581
L291.052 45.1548
L291.63 45.6662
L292.188 45.326
L292.912 45.1224
L293.118 45.2228
L293.47 45.4183
L293.78 45.1802
L293.986 44.7811
L294.689 42.8053
L294.937 42.802
L295.226 42.9289
L295.247 42.8933
L295.722 41.9067
L296.094 41.7431
L296.962 41.6696
L297.19 41.87
L297.5 42.0525
L298.14 41.6173
L298.492 41.168
L298.988 40.2376
L299.277 40.1609
L299.442 40.0982
L300.372 39.5329
L300.848 39.454
L301.922 39.6236
L302.894 39.7024
L303.638 40.3758
L305.002 40.4692
L305.518 40.851
L306.965 40.8807
L307.523 41.2933
L308.35 41.1394
L308.825 41.1075
L308.99 41.2954
L309.486 41.9629
L309.507 41.9467
L310.127 41.6097
L310.892 41.6416
L311.45 42.0374
L312.979 42.1259
L313.434 42.5007
L314.157 42.4807
L314.839 42.5628
L315.542 43.328
L316.802 43.3231
L317.236 44.0802
L317.422 44.2368
L317.691 44.0559
L318.125 43.6741
L318.332 43.6396
L318.807 43.7341
L319.448 44.3912
L320.853 44.3027
L321.204 44.8405
L321.328 44.9707
L321.37 44.9269
L322.713 42.9964
L322.734 43.0153
L323.023 43.4792
L323.312 43.9123
L323.333 43.9009
L323.746 43.6682
L324.263 43.5483
L324.594 43.4857
L324.738 43.5591
L325.441 44.3885
L326.743 44.401
L327.322 45.3325
L328.748 45.124
L329.368 45.8141
L330.69 45.3422
L331.021 45.8449
L331.269 46.0507
L332.674 45.4561
L332.984 45.7963
L333.253 45.9664
L334.121 45.3481
L334.431 44.6872
L334.824 44.2724
L334.844 44.2903
L334.844 44.2903
L334.844 44.2903
L335.196 42.7226
L335.423 41.783
L335.774 40.7684
L336.374 40.6787
L336.642 40.7678
L337.159 41.229
L337.655 40.9892
L338.316 40.8953
L338.564 40.986
L339.102 42.1087
L339.288 42.2917
L340.135 42.1421
L340.466 41.9224
L340.631 42.1033
L341.065 43.1233
L341.251 43.3026
L342.636 43.2211
L343.173 44.5543
L343.276 44.3264
L343.421 44.1574
L343.586 44.0046
L344.02 43.5764
L344.227 43.1789
L344.558 42.9867
L344.578 43.0207
L345.033 44.3945
L345.157 44.7282
L345.219 44.6634
L345.426 44.4388
L345.818 42.626
L346.273 40.9795
L346.459 40.6836
L346.5 40.7198
L346.707 41.1453
L347.141 42.5374
L347.265 42.424
L347.492 41.9801
L348.257 40.2025
L348.402 40.0761
L348.422 40.0988
L348.691 40.6982
L348.98 41.2123
L349.001 41.1966
L349.104 40.8964
L349.704 38.2347
L350.096 37.8054
L350.386 37.7001
L350.592 38.0905
L351.233 39.332
L351.791 39.1948
L352.39 39.0917
L352.638 39.6835
L353.217 41.2193
L353.279 41.1923
L353.961 40.7948
L354.374 40.6944
L354.643 41.4909
L355.077 43.3399
L355.16 43.1806
L355.428 42.4904
L355.718 42.2631
L356.42 42.1189
L356.73 43.1174
L357.04 44.2028
L357.061 44.1952
L357.412 43.9814
L358.384 43.8647
L358.652 44.341
L358.983 44.813
L359.19 44.6159
L360.244 43.8161
L360.347 43.9042
L360.967 44.6818
L361.153 44.3821
L361.525 43.9285
L362.269 43.4835
L362.29 43.5218
L362.6 44.5457
L363.013 46.3558
L363.137 46.1911
L363.406 45.8428
L363.943 45.623
L364.315 45.6008
L364.584 46.4519
L365.018 48.053
L365.1 47.918
L365.348 47.8078
L365.596 47.675
L365.782 47.2203
L366.278 44.9145
L366.299 44.9285
L366.444 45.2164
L366.96 46.6112
L367.002 46.5637
L367.415 45.8919
L367.787 45.765
L368.366 45.765
L368.924 46.8428
L369.027 46.7478
L369.358 46.2623
L369.544 45.6667
L369.833 43.0234
L370.081 41.6718
L370.246 41.4445
L370.267 41.4601
L370.515 41.8273
L370.846 42.3495
L370.908 42.2647
L371.011 41.1923
L371.28 38.8989
L371.528 38.4502
L372.272 38.2595
L372.499 38.6845
L372.788 39.6095
L372.995 39.9778
L373.202 39.8687
L373.408 39.5426
L373.636 39.3104
L374.235 38.8773
L374.483 39.1036
L374.917 39.5053
L375.062 39.4027
L375.496 39.1738
L376.033 39.0555
L376.198 39.1549
L376.591 40.1911
L377.087 41.391
L377.376 41.2096
L377.996 40.4114
L378.203 40.3936
L378.41 40.811
L378.761 42.0012
L378.988 42.5585
L379.154 42.444
L379.712 41.3861
L380.249 40.8877
L380.414 41.1442
L380.724 41.647
L380.89 41.6027
L381.344 41.3176
L382.088 41.2668
L382.212 41.4239
L382.502 42.3257
L382.77 42.9354
L382.894 42.8706
L383.246 42.5855
L383.804 42.4289
L384.176 42.4996
L384.506 43.1568
L384.816 43.5748
L385.126 43.3809
L385.622 43.2794
L386.139 43.3723
L386.346 43.9398
L386.904 45.5803
L388.04 45.3794
L388.206 45.8039
L388.722 48.1307
L388.908 48.7593
L388.929 48.7555
L389.239 48.614
L390.086 48.472
L390.314 49.5153
L390.851 51.9237
L391.058 51.7455
L391.905 50.3453
L392.05 50.1001
L392.091 50.1287
L392.277 50.4679
L392.484 51.2482
L392.918 53.1193
L394.013 53.1009
L394.55 55.3873
L394.819 56.6622
L394.86 56.551
L395.088 56.2928
L395.542 56.1935
L395.852 56.113
L395.976 56.1476
L396.121 56.8863
L396.596 59.5253
L396.617 59.5755
L396.658 59.5253
L396.658 59.5253
L396.762 59.0015
L397.154 56.6422
L397.464 56.0601
L397.816 55.7572
L398.002 55.7496
L398.188 56.2653
L398.704 57.6801
L399.51 57.0262
L399.82 56.8242
L399.986 56.7691
L400.006 56.794
L400.358 57.3129
L400.73 58.6229
L400.812 58.4615
L401.04 57.631
L401.412 56.1476
L401.784 55.4645
L401.928 55.4186
L401.949 55.4504
L402.073 55.8965
L402.734 58.8524
L402.879 58.8605
L403.933 58.7536
L404.078 59.346
L404.698 62.6999
L404.718 62.6594
L405.938 59.7991
L406.124 59.8909
L406.33 60.2273
L406.578 60.4778
L406.682 60.2683
L407.178 58.6073
L407.467 58.4874
L407.88 58.4107
L407.984 58.6483
L408.273 60.2764
L408.645 61.823
L408.748 61.7738
L409.575 60.9012
L409.906 60.5097
L410.03 60.8645
L410.505 62.7647
L410.546 62.7323
L410.67 62.4202
L411.208 60.7289
L411.414 60.5923
L411.828 60.6474
L411.972 61.4822
L412.716 67.4411
L412.861 67.4071
L413.75 67.2046
L413.894 67.0475
L413.915 67.1063
L414.018 67.4357
L414.597 69.8047
L414.638 69.7361
L414.742 68.7447
L414.969 67.6755
L415.403 67.0124
L415.796 67.0928
L416.002 68.7145
L416.498 74.7344
L416.684 77.0915
L416.746 77.085
L417.759 77.0591
L417.945 79.427
L418.627 90.5337
L418.73 89.4208
L419.454 78.347
L419.722 77.3231
L419.743 77.341
L419.929 78.3065
L420.239 83.3225
L420.632 88.7792
L420.797 88.5071
L421.004 88.2943
L421.19 87.9692
L421.314 87.0863
L421.789 83.1794
L421.872 83.72
L421.996 85.4356
L422.45 94.0189
L422.636 96.9786
L422.678 96.9646
L422.76 96.8814
L423.07 96.2275
L423.484 95.5055
L423.794 94.4681
L423.814 94.5038
L424 96.0746
L424.414 98.7984
L424.434 98.78
L424.434 98.78
L424.434 98.78
L424.455 98.8994
L424.496 98.7773
L424.496 98.7773
L424.827 96.3025
L424.972 93.7537
L425.757 79.5253
L425.86 79.2536
L425.881 79.2817
L426.005 79.9173
L426.542 84.1936
L426.646 83.9581
L426.852 83.0585
L427.018 79.4524
L427.183 69.9602
L427.493 54.0054
L427.762 49.7124
L427.886 49.4051
L427.906 49.4262
L428.154 50.0877
L428.588 52.2569
L428.692 52.1073
L428.898 52.0868
L429.394 51.9826
L429.663 51.8654
L429.684 51.9043
L429.808 52.2223
L430.035 53.5658
L430.572 56.9857
L430.738 56.8706
L431.709 55.5066
L431.771 55.5644
L431.895 56.0207
L432.412 58.4334
L432.453 58.3934
L432.639 57.7816
L432.99 56.9225
L433.404 56.7184
L433.61 56.7324
L433.817 57.9544
L434.375 63.5278
L434.644 65.8735
L435.036 65.7882
L435.553 65.0905
L435.594 65.1904
L435.78 67.3618
L436.545 79.0987
L436.69 78.988
L437.62 78.8438
L437.764 79.9724
L438.488 88.1393
L438.529 88.1188
L438.942 87.9773
L439.542 88.0038
L439.666 90.1309
L440.513 110.134
L440.678 110.036
L441.505 109.767
L441.546 109.961
L441.67 112.531
L442.228 131.858
L442.497 140.82
L442.538 140.737
L443.179 139.307
L443.344 137.022
L443.634 131.31
L443.778 130.297
L443.82 130.304
L444.212 136.216
L444.398 138.729
L444.419 138.581
L444.44 138.545
L444.646 137.203
L444.708 136.879
L444.936 133.318
L445.225 129.345
L445.432 128.346
L445.473 128.271
L445.494 128.31
L445.576 129.506
L445.762 136.268
L446.465 164.24
L446.506 164.204
L446.672 163.989
L447.498 154.942
L447.54 155.075
L447.767 160.242
L448.077 174.232
L448.47 192.853
L448.511 192.764
L448.862 191.747
L449.11 188.181
L449.358 181.355
L449.854 173.924
L449.875 174.067
L449.875 174.067
L449.875 174.067
L449.896 173.834
L449.916 174.067
L449.916 174.067
L450.061 175.099
L450.082 175.02
L450.185 175.506
L450.206 175.264
L450.226 175.33
L450.743 168.309
L450.97 166.753
L451.487 164.604
L451.528 164.84
L451.838 170.867
L452.066 174.932
L452.272 176.341
L452.293 176.224
L452.314 176.308
L452.314 176.308
L452.314 176.308
L452.396 174.892
L452.624 170.366
L453.14 165.326
L453.409 162.927
L453.43 162.933
L453.492 163.515
L453.822 171.591
L454.401 192.199
L454.463 191.707
L454.628 191.381
L454.732 191.285
L454.918 190.415
L455.124 189.43
L455.166 189.423
L455.331 188.926
L455.372 188.897
L455.434 190.344
L455.641 194.323
L455.806 194.399
L456.178 194.32
L456.344 193.641
L456.468 190.765
L457.026 178.854
L457.356 176.273
L457.377 176.37
L457.501 179.903
L457.997 194.313
L458.162 194.399
L460.27 194.349
L460.518 194.143
L460.725 193.881
L461.056 193.368
L461.428 189.557
L461.469 190.116
L461.82 192.965
L461.903 192.741
L461.944 192.494
L461.965 192.742
L462.13 194.046
L462.151 193.983
L462.172 193.915
L462.192 193.96
L462.192 193.96
L462.213 194.061
L462.234 194.047
L462.234 194.047
L462.44 192.491
L462.688 185.096
L463.143 172.957
L463.35 170.411
L463.515 173.776
L464.238 193.778
L464.28 193.75
L464.362 192.965
L464.858 185.627
L465.251 184.274
L465.334 183.733
L465.354 183.876
L465.437 185.797
L465.892 192.48
L466.098 193.596
L466.16 193.866
L466.305 194.183
L466.326 194.203
L466.346 194.171
L466.346 194.171
L466.78 192.933
L466.987 192.822
L467.07 192.391
L467.276 191.152
L467.297 191.299
L467.628 194.367
L467.917 194.399
L468.868 194.309
L469.074 193.782
L469.24 193.303
L469.26 193.256
L469.302 193.314
L469.612 194.286
L469.901 194.391
L470.624 194.321
L470.893 194.147
L471.203 193.118
L471.492 187.138
L471.658 182.521
L471.72 183.286
L471.74 182.897
L471.761 183.03
L471.761 183.03
L471.988 187.24
L472.278 192.779
L472.298 192.978
L472.319 192.881
L472.319 192.881
L472.484 190.856
L472.918 178.413
L473.166 173.367
L473.228 172.767
L473.29 173.182
L473.476 175.69
L474.282 194.351
L476.969 194.173
L477.217 194.028
L477.238 194.061
L477.506 194.341
L477.982 194.397
L478.436 194.301
L478.54 193.286
L478.705 187.777
L478.788 182.578
L479.284 163.715
L479.304 164.052
L479.366 164.777
L480.09 183.881
L480.234 187.023
L480.255 186.717
L480.565 183.247
L480.689 183.042
L481.144 183.028
L481.247 185.985
L481.557 194.012
L481.722 194.379
L482.156 194.4
L484.554 194.294
L484.616 193.943
L484.698 192.844
L484.884 188.274
L485.132 179.148
L485.194 179.47
L485.277 180.988
L485.814 193.79
L485.959 193.014
L485.98 193.144
L486 193.01
L486 193.01
L486.186 191.883
L486.641 183.652
L486.724 183.401
L486.868 182.831
L487.158 180.716
L487.199 180.898
L487.385 179.652
L487.695 173.985
L487.736 173.856
L487.736 173.856
L487.736 173.856
L488.067 176.587
L488.563 170.364
L488.852 168.958
L489.183 166.141
L489.266 166.586
L490.092 181.89
L490.154 181.664
L490.216 180.689
L490.32 171.512
L490.506 161.753
L490.733 159.593
L491.002 158.462
L491.043 158.37
L491.064 158.475
L491.188 161.955
L492.097 194.055
L492.138 193.809
L492.407 192.641
L493.027 191.326
L493.048 191.368
L493.13 192.319
L493.337 194.295
L493.461 194.386
L493.482 194.336
L493.544 194.367
L493.585 194.31
L493.626 194.115
L493.688 194.153
L493.709 194.226
L493.709 194.226
L493.709 194.226
L493.812 192.891
L493.978 188.729
L494.66 167.832
L494.784 166.056
L495.011 164.279
L495.032 164.296
L495.135 165.78
L495.404 175.455
L496.044 193.5
L496.148 194.048
L496.189 194.017
L496.313 193.856
L496.416 193.603
L496.54 193.438
L497.016 193.291
L497.305 194.366
L497.884 194.394
L498.008 194.286
L498.111 193.679
L499.041 182.042
L499.062 182.194
L499.165 184.242
L499.64 194.291
L499.826 194.396
L499.95 194.281
L499.971 194.115
L500.074 194.162
L500.095 194.183
L500.095 194.183
L500.095 194.183
L500.157 193.622
L500.343 192.45
L500.612 192.265
L500.777 191.574
L500.901 190.15
L501.087 188.96
L501.624 194.116
L501.79 194.371
L502.079 194.375
L502.162 194.287
L502.244 193.837
L502.596 187.744
L503.174 166.207
L503.236 166.35
L503.546 169.612
L503.691 172.7
L503.98 177.82
L504.042 178.271
L504.084 178.029
L504.311 176.231
L504.497 175.752
L504.662 175.726
L504.931 175.774
L505.014 177.261
L505.654 193.957
L505.882 194.379
L506.378 194.396
L508.176 194.31
L508.258 193.723
L508.382 190.401
L508.899 169.667
L509.044 167.343
L509.085 167.406
L509.106 167.318
L509.602 181.711
L510.015 194.308
L510.077 194.339
L510.118 194.292
L510.594 192.784
L510.883 192.846
L511.11 194.362
L511.379 194.398
L513.053 194.377
L513.9 194.4
L514.52 194.311
L514.851 193.71
L514.934 193.846
L515.14 194.232
L515.368 194.347
L515.76 194.396
L516.463 194.315
L516.484 194.303
L516.484 194.303" style="fill:none;stroke:#30b8b8;"/>
   </g>
   <g id="line2d_4">
    <path clip-path="url(#p01ea7e9bf2)" d="
M512.448 194.4
L512.448 32.4" style="fill:none;stroke:#000000;"/>
   </g>
   <g id="line2d_5">
    <path clip-path="url(#p01ea7e9bf2)" d="
M447.968 194.4
L447.968 32.4" style="fill:none;stroke:#56c056;"/>
   </g>
   <g id="line2d_6">
    <path clip-path="url(#p01ea7e9bf2)" d="
M447.968 194.4
L447.968 32.4" style="fill:none;stroke:#56c056;"/>
   </g>
   <g id="line2d_7">
    <path clip-path="url(#p01ea7e9bf2)" d="
M447.968 194.4
L447.968 32.4" style="fill:none;stroke:#008000;"/>
   </g>
   <g id="matplotlib.axis_1">
    <g id="xtick_1">
     <g id="line2d_8">
      <defs>
       <path d="
M0 0
L0 -4" id="m0012dd4eef" style="stroke:#000000;stroke-linecap:butt;stroke-width:0.5;"/>
      </defs>
      <g>
       <use style="stroke:#000000;stroke-linecap:butt;stroke-width:0.5;" x="95.808" xlink:href="#m0012dd4eef" y="194.4"/>
      </g>
     </g>
     <g id="line2d_9">
      <defs>
       <path d="
M0 0
L0 4" id="m476344969c" style="stroke:#000000;stroke-linecap:butt;stroke-width:0.5;"/>
      </defs>
      <g>
       <use style="stroke:#000000;stroke-linecap:butt;stroke-width:0.5;" x="95.808" xlink:href="#m476344969c" y="32.4"/>
      </g>
     </g>
     <g id="text_1">
      <!-- 274 -->
      <defs>
       <path d="
M19.1875 8.29688
L53.6094 8.29688
L53.6094 0
L7.32812 0
L7.32812 8.29688
Q12.9375 14.1094 22.625 23.8906
Q32.3281 33.6875 34.8125 36.5312
Q39.5469 41.8438 41.4219 45.5312
Q43.3125 49.2188 43.3125 52.7812
Q43.3125 58.5938 39.2344 62.25
Q35.1562 65.9219 28.6094 65.9219
Q23.9688 65.9219 18.8125 64.3125
Q13.6719 62.7031 7.8125 59.4219
L7.8125 69.3906
Q13.7656 71.7812 18.9375 73
Q24.125 74.2188 28.4219 74.2188
Q39.75 74.2188 46.4844 68.5469
Q53.2188 62.8906 53.2188 53.4219
Q53.2188 48.9219 51.5312 44.8906
Q49.8594 40.875 45.4062 35.4062
Q44.1875 33.9844 37.6406 27.2188
Q31.1094 20.4531 19.1875 8.29688" id="DejaVuSans-32"/>
       <path d="
M8.20312 72.9062
L55.0781 72.9062
L55.0781 68.7031
L28.6094 0
L18.3125 0
L43.2188 64.5938
L8.20312 64.5938
z
" id="DejaVuSans-37"/>
       <path d="
M37.7969 64.3125
L12.8906 25.3906
L37.7969 25.3906
z

M35.2031 72.9062
L47.6094 72.9062
L47.6094 25.3906
L58.0156 25.3906
L58.0156 17.1875
L47.6094 17.1875
L47.6094 0
L37.7969 0
L37.7969 17.1875
L4.89062 17.1875
L4.89062 26.7031
z
" id="DejaVuSans-34"/>
      </defs>
      <g transform="translate(88.3986825 204.5809375)scale(0.08327999999999999 -0.08327999999999999)">
       <use xlink:href="#DejaVuSans-32"/>
       <use x="63.623046875" xlink:href="#DejaVuSans-37"/>
       <use x="127.24609375" xlink:href="#DejaVuSans-34"/>
      </g>
      <!-- Oct -->
      <defs>
       <path d="
M39.4062 66.2188
Q28.6562 66.2188 22.3281 58.2031
Q16.0156 50.2031 16.0156 36.375
Q16.0156 22.6094 22.3281 14.5938
Q28.6562 6.59375 39.4062 6.59375
Q50.1406 6.59375 56.4219 14.5938
Q62.7031 22.6094 62.7031 36.375
Q62.7031 50.2031 56.4219 58.2031
Q50.1406 66.2188 39.4062 66.2188
M39.4062 74.2188
Q54.7344 74.2188 63.9062 63.9375
Q73.0938 53.6562 73.0938 36.375
Q73.0938 19.1406 63.9062 8.85938
Q54.7344 -1.42188 39.4062 -1.42188
Q24.0312 -1.42188 14.8125 8.82812
Q5.60938 19.0938 5.60938 36.375
Q5.60938 53.6562 14.8125 63.9375
Q24.0312 74.2188 39.4062 74.2188" id="DejaVuSans-4f"/>
       <path d="
M18.3125 70.2188
L18.3125 54.6875
L36.8125 54.6875
L36.8125 47.7031
L18.3125 47.7031
L18.3125 18.0156
Q18.3125 11.3281 20.1406 9.42188
Q21.9688 7.51562 27.5938 7.51562
L36.8125 7.51562
L36.8125 0
L27.5938 0
Q17.1875 0 13.2344 3.875
Q9.28125 7.76562 9.28125 18.0156
L9.28125 47.7031
L2.6875 47.7031
L2.6875 54.6875
L9.28125 54.6875
L9.28125 70.2188
z
" id="DejaVuSans-74"/>
       <path d="
M48.7812 52.5938
L48.7812 44.1875
Q44.9688 46.2969 41.1406 47.3438
Q37.3125 48.3906 33.4062 48.3906
Q24.6562 48.3906 19.8125 42.8438
Q14.9844 37.3125 14.9844 27.2969
Q14.9844 17.2812 19.8125 11.7344
Q24.6562 6.20312 33.4062 6.20312
Q37.3125 6.20312 41.1406 7.25
Q44.9688 8.29688 48.7812 10.4062
L48.7812 2.09375
Q45.0156 0.34375 40.9844 -0.53125
Q36.9688 -1.42188 32.4219 -1.42188
Q20.0625 -1.42188 12.7812 6.34375
Q5.51562 14.1094 5.51562 27.2969
Q5.51562 40.6719 12.8594 48.3281
Q20.2188 56 33.0156 56
Q37.1562 56 41.1094 55.1406
Q45.0625 54.2969 48.7812 52.5938" id="DejaVuSans-63"/>
      </defs>
      <g transform="translate(88.94130375 214.2528685)scale(0.08327999999999999 -0.08327999999999999)">
       <use xlink:href="#DejaVuSans-4f"/>
       <use x="78.7109375" xlink:href="#DejaVuSans-63"/>
       <use x="133.69140625" xlink:href="#DejaVuSans-74"/>
      </g>
     </g>
    </g>
    <g id="xtick_2">
     <g id="line2d_10">
      <g>
       <use style="stroke:#000000;stroke-linecap:butt;stroke-width:0.5;" x="157.312" xlink:href="#m0012dd4eef" y="194.4"/>
      </g>
     </g>
     <g id="line2d_11">
      <g>
       <use style="stroke:#000000;stroke-linecap:butt;stroke-width:0.5;" x="157.312" xlink:href="#m476344969c" y="32.4"/>
      </g>
     </g>
     <g id="text_2">
      <!-- 305 -->
      <defs>
       <path d="
M40.5781 39.3125
Q47.6562 37.7969 51.625 33
Q55.6094 28.2188 55.6094 21.1875
Q55.6094 10.4062 48.1875 4.48438
Q40.7656 -1.42188 27.0938 -1.42188
Q22.5156 -1.42188 17.6562 -0.515625
Q12.7969 0.390625 7.625 2.20312
L7.625 11.7188
Q11.7188 9.32812 16.5938 8.10938
Q21.4844 6.89062 26.8125 6.89062
Q36.0781 6.89062 40.9375 10.5469
Q45.7969 14.2031 45.7969 21.1875
Q45.7969 27.6406 41.2812 31.2656
Q36.7656 34.9062 28.7188 34.9062
L20.2188 34.9062
L20.2188 43.0156
L29.1094 43.0156
Q36.375 43.0156 40.2344 45.9219
Q44.0938 48.8281 44.0938 54.2969
Q44.0938 59.9062 40.1094 62.9062
Q36.1406 65.9219 28.7188 65.9219
Q24.6562 65.9219 20.0156 65.0312
Q15.375 64.1562 9.8125 62.3125
L9.8125 71.0938
Q15.4375 72.6562 20.3438 73.4375
Q25.25 74.2188 29.5938 74.2188
Q40.8281 74.2188 47.3594 69.1094
Q53.9062 64.0156 53.9062 55.3281
Q53.9062 49.2656 50.4375 45.0938
Q46.9688 40.9219 40.5781 39.3125" id="DejaVuSans-33"/>
       <path d="
M31.7812 66.4062
Q24.1719 66.4062 20.3281 58.9062
Q16.5 51.4219 16.5 36.375
Q16.5 21.3906 20.3281 13.8906
Q24.1719 6.39062 31.7812 6.39062
Q39.4531 6.39062 43.2812 13.8906
Q47.125 21.3906 47.125 36.375
Q47.125 51.4219 43.2812 58.9062
Q39.4531 66.4062 31.7812 66.4062
M31.7812 74.2188
Q44.0469 74.2188 50.5156 64.5156
Q56.9844 54.8281 56.9844 36.375
Q56.9844 17.9688 50.5156 8.26562
Q44.0469 -1.42188 31.7812 -1.42188
Q19.5312 -1.42188 13.0625 8.26562
Q6.59375 17.9688 6.59375 36.375
Q6.59375 54.8281 13.0625 64.5156
Q19.5312 74.2188 31.7812 74.2188" id="DejaVuSans-30"/>
       <path d="
M10.7969 72.9062
L49.5156 72.9062
L49.5156 64.5938
L19.8281 64.5938
L19.8281 46.7344
Q21.9688 47.4688 24.1094 47.8281
Q26.2656 48.1875 28.4219 48.1875
Q40.625 48.1875 47.75 41.5
Q54.8906 34.8125 54.8906 23.3906
Q54.8906 11.625 47.5625 5.09375
Q40.2344 -1.42188 26.9062 -1.42188
Q22.3125 -1.42188 17.5469 -0.640625
Q12.7969 0.140625 7.71875 1.70312
L7.71875 11.625
Q12.1094 9.23438 16.7969 8.0625
Q21.4844 6.89062 26.7031 6.89062
Q35.1562 6.89062 40.0781 11.3281
Q45.0156 15.7656 45.0156 23.3906
Q45.0156 31 40.0781 35.4375
Q35.1562 39.8906 26.7031 39.8906
Q22.75 39.8906 18.8125 39.0156
Q14.8906 38.1406 10.7969 36.2812
z
" id="DejaVuSans-35"/>
      </defs>
      <g transform="translate(150.045169375 204.5809375)scale(0.08327999999999999 -0.08327999999999999)">
       <use xlink:href="#DejaVuSans-33"/>
       <use x="63.623046875" xlink:href="#DejaVuSans-30"/>
       <use x="127.24609375" xlink:href="#DejaVuSans-35"/>
      </g>
      <!-- Nov -->
      <defs>
       <path d="
M2.98438 54.6875
L12.5 54.6875
L29.5938 8.79688
L46.6875 54.6875
L56.2031 54.6875
L35.6875 0
L23.4844 0
z
" id="DejaVuSans-76"/>
       <path d="
M9.8125 72.9062
L23.0938 72.9062
L55.4219 11.9219
L55.4219 72.9062
L64.9844 72.9062
L64.9844 0
L51.7031 0
L19.3906 60.9844
L19.3906 0
L9.8125 0
z
" id="DejaVuSans-4e"/>
       <path d="
M30.6094 48.3906
Q23.3906 48.3906 19.1875 42.75
Q14.9844 37.1094 14.9844 27.2969
Q14.9844 17.4844 19.1562 11.8438
Q23.3438 6.20312 30.6094 6.20312
Q37.7969 6.20312 41.9844 11.8594
Q46.1875 17.5312 46.1875 27.2969
Q46.1875 37.0156 41.9844 42.7031
Q37.7969 48.3906 30.6094 48.3906
M30.6094 56
Q42.3281 56 49.0156 48.375
Q55.7188 40.7656 55.7188 27.2969
Q55.7188 13.875 49.0156 6.21875
Q42.3281 -1.42188 30.6094 -1.42188
Q18.8438 -1.42188 12.1719 6.21875
Q5.51562 13.875 5.51562 27.2969
Q5.51562 40.7656 12.1719 48.375
Q18.8438 56 30.6094 56" id="DejaVuSans-6f"/>
      </defs>
      <g transform="translate(149.717254375 214.2528685)scale(0.08327999999999999 -0.08327999999999999)">
       <use xlink:href="#DejaVuSans-4e"/>
       <use x="74.8046875" xlink:href="#DejaVuSans-6f"/>
       <use x="135.986328125" xlink:href="#DejaVuSans-76"/>
      </g>
     </g>
    </g>
    <g id="xtick_3">
     <g id="line2d_12">
      <g>
       <use style="stroke:#000000;stroke-linecap:butt;stroke-width:0.5;" x="216.832" xlink:href="#m0012dd4eef" y="194.4"/>
      </g>
     </g>
     <g id="line2d_13">
      <g>
       <use style="stroke:#000000;stroke-linecap:butt;stroke-width:0.5;" x="216.832" xlink:href="#m476344969c" y="32.4"/>
      </g>
     </g>
     <g id="text_3">
      <!-- 335 -->
      <g transform="translate(209.565169375 204.5809375)scale(0.08327999999999999 -0.08327999999999999)">
       <use xlink:href="#DejaVuSans-33"/>
       <use x="63.623046875" xlink:href="#DejaVuSans-33"/>
       <use x="127.24609375" xlink:href="#DejaVuSans-35"/>
      </g>
      <!-- Dec -->
      <defs>
       <path d="
M56.2031 29.5938
L56.2031 25.2031
L14.8906 25.2031
Q15.4844 15.9219 20.4844 11.0625
Q25.4844 6.20312 34.4219 6.20312
Q39.5938 6.20312 44.4531 7.46875
Q49.3125 8.73438 54.1094 11.2812
L54.1094 2.78125
Q49.2656 0.734375 44.1875 -0.34375
Q39.1094 -1.42188 33.8906 -1.42188
Q20.7969 -1.42188 13.1562 6.1875
Q5.51562 13.8125 5.51562 26.8125
Q5.51562 40.2344 12.7656 48.1094
Q20.0156 56 32.3281 56
Q43.3594 56 49.7812 48.8906
Q56.2031 41.7969 56.2031 29.5938
M47.2188 32.2344
Q47.125 39.5938 43.0938 43.9844
Q39.0625 48.3906 32.4219 48.3906
Q24.9062 48.3906 20.3906 44.1406
Q15.875 39.8906 15.1875 32.1719
z
" id="DejaVuSans-65"/>
       <path d="
M19.6719 64.7969
L19.6719 8.10938
L31.5938 8.10938
Q46.6875 8.10938 53.6875 14.9375
Q60.6875 21.7812 60.6875 36.5312
Q60.6875 51.1719 53.6875 57.9844
Q46.6875 64.7969 31.5938 64.7969
z

M9.8125 72.9062
L30.0781 72.9062
Q51.2656 72.9062 61.1719 64.0938
Q71.0938 55.2812 71.0938 36.5312
Q71.0938 17.6719 61.125 8.82812
Q51.1719 0 30.0781 0
L9.8125 0
z
" id="DejaVuSans-44"/>
      </defs>
      <g transform="translate(209.4409 214.2528685)scale(0.08327999999999999 -0.08327999999999999)">
       <use xlink:href="#DejaVuSans-44"/>
       <use x="77.001953125" xlink:href="#DejaVuSans-65"/>
       <use x="138.525390625" xlink:href="#DejaVuSans-63"/>
      </g>
     </g>
    </g>
    <g id="xtick_4">
     <g id="line2d_14">
      <g>
       <use style="stroke:#000000;stroke-linecap:butt;stroke-width:0.5;" x="278.336" xlink:href="#m0012dd4eef" y="194.4"/>
      </g>
     </g>
     <g id="line2d_15">
      <g>
       <use style="stroke:#000000;stroke-linecap:butt;stroke-width:0.5;" x="278.336" xlink:href="#m476344969c" y="32.4"/>
      </g>
     </g>
     <g id="text_4">
      <!-- 001 -->
      <defs>
       <path d="
M12.4062 8.29688
L28.5156 8.29688
L28.5156 63.9219
L10.9844 60.4062
L10.9844 69.3906
L28.4219 72.9062
L38.2812 72.9062
L38.2812 8.29688
L54.3906 8.29688
L54.3906 0
L12.4062 0
z
" id="DejaVuSans-31"/>
      </defs>
      <g transform="translate(271.047048125 204.5809375)scale(0.08327999999999999 -0.08327999999999999)">
       <use xlink:href="#DejaVuSans-30"/>
       <use x="63.623046875" xlink:href="#DejaVuSans-30"/>
       <use x="127.24609375" xlink:href="#DejaVuSans-31"/>
      </g>
      <!-- Jan -->
      <defs>
       <path d="
M54.8906 33.0156
L54.8906 0
L45.9062 0
L45.9062 32.7188
Q45.9062 40.4844 42.875 44.3281
Q39.8438 48.1875 33.7969 48.1875
Q26.5156 48.1875 22.3125 43.5469
Q18.1094 38.9219 18.1094 30.9062
L18.1094 0
L9.07812 0
L9.07812 54.6875
L18.1094 54.6875
L18.1094 46.1875
Q21.3438 51.125 25.7031 53.5625
Q30.0781 56 35.7969 56
Q45.2188 56 50.0469 50.1719
Q54.8906 44.3438 54.8906 33.0156" id="DejaVuSans-6e"/>
       <path d="
M34.2812 27.4844
Q23.3906 27.4844 19.1875 25
Q14.9844 22.5156 14.9844 16.5
Q14.9844 11.7188 18.1406 8.90625
Q21.2969 6.10938 26.7031 6.10938
Q34.1875 6.10938 38.7031 11.4062
Q43.2188 16.7031 43.2188 25.4844
L43.2188 27.4844
z

M52.2031 31.2031
L52.2031 0
L43.2188 0
L43.2188 8.29688
Q40.1406 3.32812 35.5469 0.953125
Q30.9531 -1.42188 24.3125 -1.42188
Q15.9219 -1.42188 10.9531 3.29688
Q6 8.01562 6 15.9219
Q6 25.1406 12.1719 29.8281
Q18.3594 34.5156 30.6094 34.5156
L43.2188 34.5156
L43.2188 35.4062
Q43.2188 41.6094 39.1406 45
Q35.0625 48.3906 27.6875 48.3906
Q23 48.3906 18.5469 47.2656
Q14.1094 46.1406 10.0156 43.8906
L10.0156 52.2031
Q14.9375 54.1094 19.5781 55.0469
Q24.2188 56 28.6094 56
Q40.4844 56 46.3438 49.8438
Q52.2031 43.7031 52.2031 31.2031" id="DejaVuSans-61"/>
       <path d="
M9.8125 72.9062
L19.6719 72.9062
L19.6719 5.07812
Q19.6719 -8.10938 14.6719 -14.0625
Q9.67188 -20.0156 -1.42188 -20.0156
L-5.17188 -20.0156
L-5.17188 -11.7188
L-2.09375 -11.7188
Q4.4375 -11.7188 7.125 -8.04688
Q9.8125 -4.39062 9.8125 5.07812
z
" id="DejaVuSans-4a"/>
      </defs>
      <g transform="translate(272.05486625 214.2528685)scale(0.08327999999999999 -0.08327999999999999)">
       <use xlink:href="#DejaVuSans-4a"/>
       <use x="29.4921875" xlink:href="#DejaVuSans-61"/>
       <use x="90.771484375" xlink:href="#DejaVuSans-6e"/>
      </g>
     </g>
    </g>
    <g id="xtick_5">
     <g id="line2d_16">
      <g>
       <use style="stroke:#000000;stroke-linecap:butt;stroke-width:0.5;" x="339.84" xlink:href="#m0012dd4eef" y="194.4"/>
      </g>
     </g>
     <g id="line2d_17">
      <g>
       <use style="stroke:#000000;stroke-linecap:butt;stroke-width:0.5;" x="339.84" xlink:href="#m476344969c" y="32.4"/>
      </g>
     </g>
     <g id="text_5">
      <!-- 032 -->
      <g transform="translate(332.583579375 204.5809375)scale(0.08327999999999999 -0.08327999999999999)">
       <use xlink:href="#DejaVuSans-30"/>
       <use x="63.623046875" xlink:href="#DejaVuSans-33"/>
       <use x="127.24609375" xlink:href="#DejaVuSans-32"/>
      </g>
      <!-- Feb -->
      <defs>
       <path d="
M9.8125 72.9062
L51.7031 72.9062
L51.7031 64.5938
L19.6719 64.5938
L19.6719 43.1094
L48.5781 43.1094
L48.5781 34.8125
L19.6719 34.8125
L19.6719 0
L9.8125 0
z
" id="DejaVuSans-46"/>
       <path d="
M48.6875 27.2969
Q48.6875 37.2031 44.6094 42.8438
Q40.5312 48.4844 33.4062 48.4844
Q26.2656 48.4844 22.1875 42.8438
Q18.1094 37.2031 18.1094 27.2969
Q18.1094 17.3906 22.1875 11.75
Q26.2656 6.10938 33.4062 6.10938
Q40.5312 6.10938 44.6094 11.75
Q48.6875 17.3906 48.6875 27.2969
M18.1094 46.3906
Q20.9531 51.2656 25.2656 53.625
Q29.5938 56 35.5938 56
Q45.5625 56 51.7812 48.0938
Q58.0156 40.1875 58.0156 27.2969
Q58.0156 14.4062 51.7812 6.48438
Q45.5625 -1.42188 35.5938 -1.42188
Q29.5938 -1.42188 25.2656 0.953125
Q20.9531 3.32812 18.1094 8.20312
L18.1094 0
L9.07812 0
L9.07812 75.9844
L18.1094 75.9844
z
" id="DejaVuSans-62"/>
      </defs>
      <g transform="translate(333.10473 214.2528685)scale(0.08327999999999999 -0.08327999999999999)">
       <use xlink:href="#DejaVuSans-46"/>
       <use x="52.01953125" xlink:href="#DejaVuSans-65"/>
       <use x="113.54296875" xlink:href="#DejaVuSans-62"/>
      </g>
     </g>
    </g>
    <g id="xtick_6">
     <g id="line2d_18">
      <g>
       <use style="stroke:#000000;stroke-linecap:butt;stroke-width:0.5;" x="395.392" xlink:href="#m0012dd4eef" y="194.4"/>
      </g>
     </g>
     <g id="line2d_19">
      <g>
       <use style="stroke:#000000;stroke-linecap:butt;stroke-width:0.5;" x="395.392" xlink:href="#m476344969c" y="32.4"/>
      </g>
     </g>
     <g id="text_6">
      <!-- 060 -->
      <defs>
       <path d="
M33.0156 40.375
Q26.375 40.375 22.4844 35.8281
Q18.6094 31.2969 18.6094 23.3906
Q18.6094 15.5312 22.4844 10.9531
Q26.375 6.39062 33.0156 6.39062
Q39.6562 6.39062 43.5312 10.9531
Q47.4062 15.5312 47.4062 23.3906
Q47.4062 31.2969 43.5312 35.8281
Q39.6562 40.375 33.0156 40.375
M52.5938 71.2969
L52.5938 62.3125
Q48.875 64.0625 45.0938 64.9844
Q41.3125 65.9219 37.5938 65.9219
Q27.8281 65.9219 22.6719 59.3281
Q17.5312 52.7344 16.7969 39.4062
Q19.6719 43.6562 24.0156 45.9219
Q28.375 48.1875 33.5938 48.1875
Q44.5781 48.1875 50.9531 41.5156
Q57.3281 34.8594 57.3281 23.3906
Q57.3281 12.1562 50.6875 5.35938
Q44.0469 -1.42188 33.0156 -1.42188
Q20.3594 -1.42188 13.6719 8.26562
Q6.98438 17.9688 6.98438 36.375
Q6.98438 53.6562 15.1875 63.9375
Q23.3906 74.2188 37.2031 74.2188
Q40.9219 74.2188 44.7031 73.4844
Q48.4844 72.75 52.5938 71.2969" id="DejaVuSans-36"/>
      </defs>
      <g transform="translate(387.995044375 204.5809375)scale(0.08327999999999999 -0.08327999999999999)">
       <use xlink:href="#DejaVuSans-30"/>
       <use x="63.623046875" xlink:href="#DejaVuSans-36"/>
       <use x="127.24609375" xlink:href="#DejaVuSans-30"/>
      </g>
      <!-- Mar -->
      <defs>
       <path d="
M9.8125 72.9062
L24.5156 72.9062
L43.1094 23.2969
L61.8125 72.9062
L76.5156 72.9062
L76.5156 0
L66.8906 0
L66.8906 64.0156
L48.0938 14.0156
L38.1875 14.0156
L19.3906 64.0156
L19.3906 0
L9.8125 0
z
" id="DejaVuSans-4d"/>
       <path d="
M41.1094 46.2969
Q39.5938 47.1719 37.8125 47.5781
Q36.0312 48 33.8906 48
Q26.2656 48 22.1875 43.0469
Q18.1094 38.0938 18.1094 28.8125
L18.1094 0
L9.07812 0
L9.07812 54.6875
L18.1094 54.6875
L18.1094 46.1875
Q20.9531 51.1719 25.4844 53.5781
Q30.0312 56 36.5312 56
Q37.4531 56 38.5781 55.875
Q39.7031 55.7656 41.0625 55.5156
z
" id="DejaVuSans-72"/>
      </defs>
      <g transform="translate(387.944295625 214.2528685)scale(0.08327999999999999 -0.08327999999999999)">
       <use xlink:href="#DejaVuSans-4d"/>
       <use x="86.279296875" xlink:href="#DejaVuSans-61"/>
       <use x="147.55859375" xlink:href="#DejaVuSans-72"/>
      </g>
     </g>
    </g>
    <g id="xtick_7">
     <g id="line2d_20">
      <g>
       <use style="stroke:#000000;stroke-linecap:butt;stroke-width:0.5;" x="456.896" xlink:href="#m0012dd4eef" y="194.4"/>
      </g>
     </g>
     <g id="line2d_21">
      <g>
       <use style="stroke:#000000;stroke-linecap:butt;stroke-width:0.5;" x="456.896" xlink:href="#m476344969c" y="32.4"/>
      </g>
     </g>
     <g id="text_7">
      <!-- 091 -->
      <defs>
       <path d="
M10.9844 1.51562
L10.9844 10.5
Q14.7031 8.73438 18.5 7.8125
Q22.3125 6.89062 25.9844 6.89062
Q35.75 6.89062 40.8906 13.4531
Q46.0469 20.0156 46.7812 33.4062
Q43.9531 29.2031 39.5938 26.9531
Q35.25 24.7031 29.9844 24.7031
Q19.0469 24.7031 12.6719 31.3125
Q6.29688 37.9375 6.29688 49.4219
Q6.29688 60.6406 12.9375 67.4219
Q19.5781 74.2188 30.6094 74.2188
Q43.2656 74.2188 49.9219 64.5156
Q56.5938 54.8281 56.5938 36.375
Q56.5938 19.1406 48.4062 8.85938
Q40.2344 -1.42188 26.4219 -1.42188
Q22.7031 -1.42188 18.8906 -0.6875
Q15.0938 0.046875 10.9844 1.51562
M30.6094 32.4219
Q37.25 32.4219 41.125 36.9531
Q45.0156 41.5 45.0156 49.4219
Q45.0156 57.2812 41.125 61.8438
Q37.25 66.4062 30.6094 66.4062
Q23.9688 66.4062 20.0938 61.8438
Q16.2188 57.2812 16.2188 49.4219
Q16.2188 41.5 20.0938 36.9531
Q23.9688 32.4219 30.6094 32.4219" id="DejaVuSans-39"/>
      </defs>
      <g transform="translate(449.607048125 204.5809375)scale(0.08327999999999999 -0.08327999999999999)">
       <use xlink:href="#DejaVuSans-30"/>
       <use x="63.623046875" xlink:href="#DejaVuSans-39"/>
       <use x="127.24609375" xlink:href="#DejaVuSans-31"/>
      </g>
      <!-- Apr -->
      <defs>
       <path d="
M18.1094 8.20312
L18.1094 -20.7969
L9.07812 -20.7969
L9.07812 54.6875
L18.1094 54.6875
L18.1094 46.3906
Q20.9531 51.2656 25.2656 53.625
Q29.5938 56 35.5938 56
Q45.5625 56 51.7812 48.0938
Q58.0156 40.1875 58.0156 27.2969
Q58.0156 14.4062 51.7812 6.48438
Q45.5625 -1.42188 35.5938 -1.42188
Q29.5938 -1.42188 25.2656 0.953125
Q20.9531 3.32812 18.1094 8.20312
M48.6875 27.2969
Q48.6875 37.2031 44.6094 42.8438
Q40.5312 48.4844 33.4062 48.4844
Q26.2656 48.4844 22.1875 42.8438
Q18.1094 37.2031 18.1094 27.2969
Q18.1094 17.3906 22.1875 11.75
Q26.2656 6.10938 33.4062 6.10938
Q40.5312 6.10938 44.6094 11.75
Q48.6875 17.3906 48.6875 27.2969" id="DejaVuSans-70"/>
       <path d="
M34.1875 63.1875
L20.7969 26.9062
L47.6094 26.9062
z

M28.6094 72.9062
L39.7969 72.9062
L67.5781 0
L57.3281 0
L50.6875 18.7031
L17.8281 18.7031
L11.1875 0
L0.78125 0
z
" id="DejaVuSans-41"/>
      </defs>
      <g transform="translate(449.72481125 214.2528685)scale(0.08327999999999999 -0.08327999999999999)">
       <use xlink:href="#DejaVuSans-41"/>
       <use x="68.408203125" xlink:href="#DejaVuSans-70"/>
       <use x="131.884765625" xlink:href="#DejaVuSans-72"/>
      </g>
     </g>
    </g>
    <g id="xtick_8">
     <g id="line2d_22">
      <g>
       <use style="stroke:#000000;stroke-linecap:butt;stroke-width:0.5;" x="516.416" xlink:href="#m0012dd4eef" y="194.4"/>
      </g>
     </g>
     <g id="line2d_23">
      <g>
       <use style="stroke:#000000;stroke-linecap:butt;stroke-width:0.5;" x="516.416" xlink:href="#m476344969c" y="32.4"/>
      </g>
     </g>
     <g id="text_8">
      <!-- 121 -->
      <g transform="translate(509.30987375 204.5809375)scale(0.08327999999999999 -0.08327999999999999)">
       <use xlink:href="#DejaVuSans-31"/>
       <use x="63.623046875" xlink:href="#DejaVuSans-32"/>
       <use x="127.24609375" xlink:href="#DejaVuSans-31"/>
      </g>
      <!-- May -->
      <defs>
       <path d="
M32.1719 -5.07812
Q28.375 -14.8438 24.75 -17.8125
Q21.1406 -20.7969 15.0938 -20.7969
L7.90625 -20.7969
L7.90625 -13.2812
L13.1875 -13.2812
Q16.8906 -13.2812 18.9375 -11.5156
Q21 -9.76562 23.4844 -3.21875
L25.0938 0.875
L2.98438 54.6875
L12.5 54.6875
L29.5938 11.9219
L46.6875 54.6875
L56.2031 54.6875
z
" id="DejaVuSans-79"/>
      </defs>
      <g transform="translate(508.339791875 214.2528685)scale(0.08327999999999999 -0.08327999999999999)">
       <use xlink:href="#DejaVuSans-4d"/>
       <use x="86.279296875" xlink:href="#DejaVuSans-61"/>
       <use x="147.55859375" xlink:href="#DejaVuSans-79"/>
      </g>
     </g>
    </g>
    <g id="text_9">
     <!-- Year-days in 2013 and 2014 -->
     <defs>
      <path d="
M-0.203125 72.9062
L10.4062 72.9062
L30.6094 42.9219
L50.6875 72.9062
L61.2812 72.9062
L35.5 34.7188
L35.5 0
L25.5938 0
L25.5938 34.7188
z
" id="DejaVuSans-59"/>
      <path d="
M44.2812 53.0781
L44.2812 44.5781
Q40.4844 46.5312 36.375 47.5
Q32.2812 48.4844 27.875 48.4844
Q21.1875 48.4844 17.8438 46.4375
Q14.5 44.3906 14.5 40.2812
Q14.5 37.1562 16.8906 35.375
Q19.2812 33.5938 26.5156 31.9844
L29.5938 31.2969
Q39.1562 29.25 43.1875 25.5156
Q47.2188 21.7812 47.2188 15.0938
Q47.2188 7.46875 41.1875 3.01562
Q35.1562 -1.42188 24.6094 -1.42188
Q20.2188 -1.42188 15.4531 -0.5625
Q10.6875 0.296875 5.42188 2
L5.42188 11.2812
Q10.4062 8.6875 15.2344 7.39062
Q20.0625 6.10938 24.8125 6.10938
Q31.1562 6.10938 34.5625 8.28125
Q37.9844 10.4531 37.9844 14.4062
Q37.9844 18.0625 35.5156 20.0156
Q33.0625 21.9688 24.7031 23.7812
L21.5781 24.5156
Q13.2344 26.2656 9.51562 29.9062
Q5.8125 33.5469 5.8125 39.8906
Q5.8125 47.6094 11.2812 51.7969
Q16.75 56 26.8125 56
Q31.7812 56 36.1719 55.2656
Q40.5781 54.5469 44.2812 53.0781" id="DejaVuSans-73"/>
      <path d="
M45.4062 46.3906
L45.4062 75.9844
L54.3906 75.9844
L54.3906 0
L45.4062 0
L45.4062 8.20312
Q42.5781 3.32812 38.25 0.953125
Q33.9375 -1.42188 27.875 -1.42188
Q17.9688 -1.42188 11.7344 6.48438
Q5.51562 14.4062 5.51562 27.2969
Q5.51562 40.1875 11.7344 48.0938
Q17.9688 56 27.875 56
Q33.9375 56 38.25 53.625
Q42.5781 51.2656 45.4062 46.3906
M14.7969 27.2969
Q14.7969 17.3906 18.875 11.75
Q22.9531 6.10938 30.0781 6.10938
Q37.2031 6.10938 41.2969 11.75
Q45.4062 17.3906 45.4062 27.2969
Q45.4062 37.2031 41.2969 42.8438
Q37.2031 48.4844 30.0781 48.4844
Q22.9531 48.4844 18.875 42.8438
Q14.7969 37.2031 14.7969 27.2969" id="DejaVuSans-64"/>
      <path id="DejaVuSans-20"/>
      <path d="
M9.42188 54.6875
L18.4062 54.6875
L18.4062 0
L9.42188 0
z

M9.42188 75.9844
L18.4062 75.9844
L18.4062 64.5938
L9.42188 64.5938
z
" id="DejaVuSans-69"/>
      <path d="
M4.89062 31.3906
L31.2031 31.3906
L31.2031 23.3906
L4.89062 23.3906
z
" id="DejaVuSans-2d"/>
     </defs>
     <g transform="translate(237.423849375 227.312811)scale(0.08327999999999999 -0.08327999999999999)">
      <use xlink:href="#DejaVuSans-59"/>
      <use x="47.833984375" xlink:href="#DejaVuSans-65"/>
      <use x="109.357421875" xlink:href="#DejaVuSans-61"/>
      <use x="170.63671875" xlink:href="#DejaVuSans-72"/>
      <use x="205.375" xlink:href="#DejaVuSans-2d"/>
      <use x="241.458984375" xlink:href="#DejaVuSans-64"/>
      <use x="304.935546875" xlink:href="#DejaVuSans-61"/>
      <use x="366.21484375" xlink:href="#DejaVuSans-79"/>
      <use x="425.39453125" xlink:href="#DejaVuSans-73"/>
      <use x="477.494140625" xlink:href="#DejaVuSans-20"/>
      <use x="509.28125" xlink:href="#DejaVuSans-69"/>
      <use x="537.064453125" xlink:href="#DejaVuSans-6e"/>
      <use x="600.443359375" xlink:href="#DejaVuSans-20"/>
      <use x="632.23046875" xlink:href="#DejaVuSans-32"/>
      <use x="695.853515625" xlink:href="#DejaVuSans-30"/>
      <use x="759.4765625" xlink:href="#DejaVuSans-31"/>
      <use x="823.099609375" xlink:href="#DejaVuSans-33"/>
      <use x="886.72265625" xlink:href="#DejaVuSans-20"/>
      <use x="918.509765625" xlink:href="#DejaVuSans-61"/>
      <use x="979.7890625" xlink:href="#DejaVuSans-6e"/>
      <use x="1043.16796875" xlink:href="#DejaVuSans-64"/>
      <use x="1106.64453125" xlink:href="#DejaVuSans-20"/>
      <use x="1138.431640625" xlink:href="#DejaVuSans-32"/>
      <use x="1202.0546875" xlink:href="#DejaVuSans-30"/>
      <use x="1265.677734375" xlink:href="#DejaVuSans-31"/>
      <use x="1329.30078125" xlink:href="#DejaVuSans-34"/>
     </g>
    </g>
   </g>
   <g id="matplotlib.axis_2">
    <g id="ytick_1">
     <g id="line2d_24">
      <defs>
       <path d="
M0 0
L4 0" id="me8a85f7bf6" style="stroke:#000000;stroke-linecap:butt;stroke-width:0.5;"/>
      </defs>
      <g>
       <use style="stroke:#000000;stroke-linecap:butt;stroke-width:0.5;" x="72.0" xlink:href="#me8a85f7bf6" y="194.4"/>
      </g>
     </g>
     <g id="text_10">
      <!-- 0 -->
      <g transform="translate(63.80346875 197.431261875)scale(0.08327999999999999 -0.08327999999999999)">
       <use xlink:href="#DejaVuSans-30"/>
      </g>
     </g>
    </g>
    <g id="ytick_2">
     <g id="line2d_25">
      <g>
       <use style="stroke:#000000;stroke-linecap:butt;stroke-width:0.5;" x="72.0" xlink:href="#me8a85f7bf6" y="167.4"/>
      </g>
     </g>
     <g id="text_11">
      <!-- 5 -->
      <g transform="translate(64.07152625 170.376609375)scale(0.08327999999999999 -0.08327999999999999)">
       <use xlink:href="#DejaVuSans-35"/>
      </g>
     </g>
    </g>
    <g id="ytick_3">
     <g id="line2d_26">
      <g>
       <use style="stroke:#000000;stroke-linecap:butt;stroke-width:0.5;" x="72.0" xlink:href="#me8a85f7bf6" y="140.4"/>
      </g>
     </g>
     <g id="text_12">
      <!-- 10 -->
      <g transform="translate(58.87043 143.431261875)scale(0.08327999999999999 -0.08327999999999999)">
       <use xlink:href="#DejaVuSans-31"/>
       <use x="63.623046875" xlink:href="#DejaVuSans-30"/>
      </g>
     </g>
    </g>
    <g id="ytick_4">
     <g id="line2d_27">
      <g>
       <use style="stroke:#000000;stroke-linecap:butt;stroke-width:0.5;" x="72.0" xlink:href="#me8a85f7bf6" y="113.4"/>
      </g>
     </g>
     <g id="text_13">
      <!-- 15 -->
      <g transform="translate(59.0447975 116.376609375)scale(0.08327999999999999 -0.08327999999999999)">
       <use xlink:href="#DejaVuSans-31"/>
       <use x="63.623046875" xlink:href="#DejaVuSans-35"/>
      </g>
     </g>
    </g>
    <g id="ytick_5">
     <g id="line2d_28">
      <g>
       <use style="stroke:#000000;stroke-linecap:butt;stroke-width:0.5;" x="72.0" xlink:href="#me8a85f7bf6" y="86.4"/>
      </g>
     </g>
     <g id="text_14">
      <!-- 20 -->
      <g transform="translate(58.5659375 89.431261875)scale(0.08327999999999999 -0.08327999999999999)">
       <use xlink:href="#DejaVuSans-32"/>
       <use x="63.623046875" xlink:href="#DejaVuSans-30"/>
      </g>
     </g>
    </g>
    <g id="ytick_6">
     <g id="line2d_29">
      <g>
       <use style="stroke:#000000;stroke-linecap:butt;stroke-width:0.5;" x="72.0" xlink:href="#me8a85f7bf6" y="59.4"/>
      </g>
     </g>
     <g id="text_15">
      <!-- 25 -->
      <g transform="translate(58.740305 62.431261875)scale(0.08327999999999999 -0.08327999999999999)">
       <use xlink:href="#DejaVuSans-32"/>
       <use x="63.623046875" xlink:href="#DejaVuSans-35"/>
      </g>
     </g>
    </g>
    <g id="ytick_7">
     <g id="line2d_30">
      <g>
       <use style="stroke:#000000;stroke-linecap:butt;stroke-width:0.5;" x="72.0" xlink:href="#me8a85f7bf6" y="32.4"/>
      </g>
     </g>
     <g id="text_16">
      <!-- 30 -->
      <g transform="translate(58.59066125 35.431261875)scale(0.08327999999999999 -0.08327999999999999)">
       <use xlink:href="#DejaVuSans-33"/>
       <use x="63.623046875" xlink:href="#DejaVuSans-30"/>
      </g>
     </g>
    </g>
    <g id="text_17">
     <!-- 3 m Avg Nitrate Concentration [uM N] -->
     <defs>
      <path d="
M52 44.1875
Q55.375 50.25 60.0625 53.125
Q64.75 56 71.0938 56
Q79.6406 56 84.2812 50.0156
Q88.9219 44.0469 88.9219 33.0156
L88.9219 0
L79.8906 0
L79.8906 32.7188
Q79.8906 40.5781 77.0938 44.375
Q74.3125 48.1875 68.6094 48.1875
Q61.625 48.1875 57.5625 43.5469
Q53.5156 38.9219 53.5156 30.9062
L53.5156 0
L44.4844 0
L44.4844 32.7188
Q44.4844 40.625 41.7031 44.4062
Q38.9219 48.1875 33.1094 48.1875
Q26.2188 48.1875 22.1562 43.5312
Q18.1094 38.875 18.1094 30.9062
L18.1094 0
L9.07812 0
L9.07812 54.6875
L18.1094 54.6875
L18.1094 46.1875
Q21.1875 51.2188 25.4844 53.6094
Q29.7812 56 35.6875 56
Q41.6562 56 45.8281 52.9688
Q50 49.9531 52 44.1875" id="DejaVuSans-6d"/>
      <path d="
M45.4062 27.9844
Q45.4062 37.75 41.375 43.1094
Q37.3594 48.4844 30.0781 48.4844
Q22.8594 48.4844 18.8281 43.1094
Q14.7969 37.75 14.7969 27.9844
Q14.7969 18.2656 18.8281 12.8906
Q22.8594 7.51562 30.0781 7.51562
Q37.3594 7.51562 41.375 12.8906
Q45.4062 18.2656 45.4062 27.9844
M54.3906 6.78125
Q54.3906 -7.17188 48.1875 -13.9844
Q42 -20.7969 29.2031 -20.7969
Q24.4688 -20.7969 20.2656 -20.0938
Q16.0625 -19.3906 12.1094 -17.9219
L12.1094 -9.1875
Q16.0625 -11.3281 19.9219 -12.3438
Q23.7812 -13.375 27.7812 -13.375
Q36.625 -13.375 41.0156 -8.76562
Q45.4062 -4.15625 45.4062 5.17188
L45.4062 9.625
Q42.625 4.78125 38.2812 2.39062
Q33.9375 0 27.875 0
Q17.8281 0 11.6719 7.65625
Q5.51562 15.3281 5.51562 27.9844
Q5.51562 40.6719 11.6719 48.3281
Q17.8281 56 27.875 56
Q33.9375 56 38.2812 53.6094
Q42.625 51.2188 45.4062 46.3906
L45.4062 54.6875
L54.3906 54.6875
z
" id="DejaVuSans-67"/>
      <path d="
M8.5 21.5781
L8.5 54.6875
L17.4844 54.6875
L17.4844 21.9219
Q17.4844 14.1562 20.5 10.2656
Q23.5312 6.39062 29.5938 6.39062
Q36.8594 6.39062 41.0781 11.0312
Q45.3125 15.6719 45.3125 23.6875
L45.3125 54.6875
L54.2969 54.6875
L54.2969 0
L45.3125 0
L45.3125 8.40625
Q42.0469 3.42188 37.7188 1
Q33.4062 -1.42188 27.6875 -1.42188
Q18.2656 -1.42188 13.375 4.4375
Q8.5 10.2969 8.5 21.5781
M31.1094 56
z
" id="DejaVuSans-75"/>
      <path d="
M30.4219 75.9844
L30.4219 -13.1875
L9.71875 -13.1875
L9.71875 -6.20312
L21.3906 -6.20312
L21.3906 69
L9.71875 69
L9.71875 75.9844
z
" id="DejaVuSans-5d"/>
      <path d="
M8.59375 75.9844
L29.2969 75.9844
L29.2969 69
L17.5781 69
L17.5781 -6.20312
L29.2969 -6.20312
L29.2969 -13.1875
L8.59375 -13.1875
z
" id="DejaVuSans-5b"/>
      <path d="
M64.4062 67.2812
L64.4062 56.8906
Q59.4219 61.5312 53.7812 63.8125
Q48.1406 66.1094 41.7969 66.1094
Q29.2969 66.1094 22.6562 58.4688
Q16.0156 50.8281 16.0156 36.375
Q16.0156 21.9688 22.6562 14.3281
Q29.2969 6.6875 41.7969 6.6875
Q48.1406 6.6875 53.7812 8.98438
Q59.4219 11.2812 64.4062 15.9219
L64.4062 5.60938
Q59.2344 2.09375 53.4375 0.328125
Q47.6562 -1.42188 41.2188 -1.42188
Q24.6562 -1.42188 15.125 8.70312
Q5.60938 18.8438 5.60938 36.375
Q5.60938 53.9531 15.125 64.0781
Q24.6562 74.2188 41.2188 74.2188
Q47.75 74.2188 53.5312 72.4844
Q59.3281 70.75 64.4062 67.2812" id="DejaVuSans-43"/>
     </defs>
     <g style="fill:#30b8b8;" transform="translate(53.5659375 190.083313125)rotate(-90.0)scale(0.08327999999999999 -0.08327999999999999)">
      <use xlink:href="#DejaVuSans-33"/>
      <use x="63.623046875" xlink:href="#DejaVuSans-20"/>
      <use x="95.41015625" xlink:href="#DejaVuSans-6d"/>
      <use x="192.822265625" xlink:href="#DejaVuSans-20"/>
      <use x="224.609375" xlink:href="#DejaVuSans-41"/>
      <use x="287.142578125" xlink:href="#DejaVuSans-76"/>
      <use x="346.322265625" xlink:href="#DejaVuSans-67"/>
      <use x="409.798828125" xlink:href="#DejaVuSans-20"/>
      <use x="441.5859375" xlink:href="#DejaVuSans-4e"/>
      <use x="516.390625" xlink:href="#DejaVuSans-69"/>
      <use x="544.173828125" xlink:href="#DejaVuSans-74"/>
      <use x="583.3828125" xlink:href="#DejaVuSans-72"/>
      <use x="624.49609375" xlink:href="#DejaVuSans-61"/>
      <use x="685.775390625" xlink:href="#DejaVuSans-74"/>
      <use x="724.984375" xlink:href="#DejaVuSans-65"/>
      <use x="786.5078125" xlink:href="#DejaVuSans-20"/>
      <use x="818.294921875" xlink:href="#DejaVuSans-43"/>
      <use x="888.119140625" xlink:href="#DejaVuSans-6f"/>
      <use x="949.30078125" xlink:href="#DejaVuSans-6e"/>
      <use x="1012.6796875" xlink:href="#DejaVuSans-63"/>
      <use x="1067.66015625" xlink:href="#DejaVuSans-65"/>
      <use x="1129.18359375" xlink:href="#DejaVuSans-6e"/>
      <use x="1192.5625" xlink:href="#DejaVuSans-74"/>
      <use x="1231.771484375" xlink:href="#DejaVuSans-72"/>
      <use x="1272.884765625" xlink:href="#DejaVuSans-61"/>
      <use x="1334.1640625" xlink:href="#DejaVuSans-74"/>
      <use x="1373.373046875" xlink:href="#DejaVuSans-69"/>
      <use x="1401.15625" xlink:href="#DejaVuSans-6f"/>
      <use x="1462.337890625" xlink:href="#DejaVuSans-6e"/>
      <use x="1525.716796875" xlink:href="#DejaVuSans-20"/>
      <use x="1557.50390625" xlink:href="#DejaVuSans-5b"/>
      <use x="1596.517578125" xlink:href="#DejaVuSans-75"/>
      <use x="1659.896484375" xlink:href="#DejaVuSans-4d"/>
      <use x="1746.17578125" xlink:href="#DejaVuSans-20"/>
      <use x="1777.962890625" xlink:href="#DejaVuSans-4e"/>
      <use x="1852.767578125" xlink:href="#DejaVuSans-5d"/>
     </g>
    </g>
   </g>
   <g id="patch_3">
    <path d="
M518.4 194.4
L518.4 32.4" style="fill:none;stroke:#000000;"/>
   </g>
   <g id="patch_4">
    <path d="
M72 194.4
L518.4 194.4" style="fill:none;stroke:#000000;"/>
   </g>
   <g id="patch_5">
    <path d="
M72 194.4
L72 32.4" style="fill:none;stroke:#000000;"/>
   </g>
   <g id="patch_6">
    <path d="
M72 32.4
L518.4 32.4" style="fill:none;stroke:#000000;"/>
   </g>
  </g>
  <g id="axes_2">
   <g id="line2d_31">
    <path clip-path="url(#p01ea7e9bf2)" d="
M512.454 127.362
L512.867 132.962
L513.59 142.916
L514.086 148.268
L514.107 147.788
L514.148 148.16
L514.148 148.16
L514.169 148.291
L514.169 148.291
L514.169 148.291
L514.314 147.937
L514.438 148.359
L514.479 148.338
L514.562 147.722
L514.624 147.831
L514.851 149.088
L514.892 149.184
L514.975 149.164
L515.078 149.461
L515.326 151.144
L516.484 159.46
L516.484 159.46" style="fill:none;stroke:#56c056;"/>
   </g>
   <g id="line2d_32">
    <path clip-path="url(#p01ea7e9bf2)" d="
M512.454 131.898
L512.784 135.662
L514.045 151.258
L514.169 150.548
L514.19 150.791
L514.231 150.408
L514.272 150.784
L514.272 150.784
L514.293 150.814
L514.293 150.814
L514.293 150.814
L514.314 150.676
L514.376 150.733
L514.541 151.417
L514.83 149.963
L515.016 148.958
L515.223 147.228
L515.409 145.229
L515.45 145.29
L515.533 145.853
L516.401 156.012
L516.484 156.721
L516.484 156.721" style="fill:none;stroke:#56c056;"/>
   </g>
   <g id="line2d_33">
    <path clip-path="url(#p01ea7e9bf2)" d="
M73.5555 168.467
L74.2375 171.758
L74.5062 172.861
L74.5682 172.806
L74.6508 172.682
L74.8162 171.882
L75.3535 169.007
L75.3742 169.026
L75.4568 169.294
L76.0975 172.693
L76.4902 174.461
L76.5108 174.452
L76.6142 174.044
L77.1102 171.891
L77.3995 170.779
L77.4615 170.967
L77.9988 173.258
L78.5568 175.164
L78.6602 175.034
L78.7842 174.851
L78.8255 174.911
L79.1148 175.553
L79.2182 175.786
L79.4455 176.923
L79.8588 178.803
L80.4375 180.464
L80.5408 180.548
L80.5822 180.515
L80.7682 180.017
L81.3882 177.174
L81.4708 177.464
L82.1735 179.625
L82.5248 180.276
L82.5455 180.266
L82.7108 179.871
L83.0828 178.105
L83.2895 177.401
L83.3102 177.406
L83.4135 177.687
L84.4262 181.52
L84.4675 181.46
L84.8602 180.045
L85.3355 178.087
L85.3975 178.336
L85.7695 179.547
L86.4102 181.142
L86.4308 181.097
L87.1748 177.724
L87.3402 176.946
L87.3815 177.103
L87.6295 177.623
L87.9808 178.083
L88.4562 179.329
L88.5182 179.263
L88.6835 178.708
L89.2002 176.555
L89.2415 176.581
L89.4482 177.305
L89.9855 179.213
L90.4815 180.367
L90.5022 180.356
L90.6262 180.095
L91.0395 178.996
L91.0602 179.015
L91.2875 179.614
L91.8455 181.476
L92.4035 182.804
L92.4448 182.772
L92.6102 182.341
L93.1062 181.088
L93.1268 181.104
L93.2715 181.538
L93.7675 183.12
L94.4288 184.369
L94.5528 184.159
L94.9662 182.748
L95.2142 182.168
L95.2348 182.184
L96.3922 184.253
L96.4542 184.178
L96.7022 182.946
L97.1362 180.671
L97.1775 180.596
L97.2188 180.667
L97.8182 182.327
L98.3762 183.394
L98.3968 183.384
L98.5208 183.115
L98.7895 181.827
L99.0995 180.543
L99.1822 180.564
L100.319 182.985
L100.381 182.676
L101.022 177.014
L101.208 176.238
L101.662 177.947
L102.303 179.813
L102.448 178.868
L103.13 172.095
L103.212 172.305
L104.328 176.948
L104.349 176.933
L104.432 176.606
L104.659 174.299
L105.155 168.081
L105.217 168.354
L106.106 172.822
L106.292 173.528
L106.333 173.388
L106.457 171.952
L107.139 163.496
L107.16 163.562
L107.738 166.642
L107.924 167.356
L108.09 168.662
L108.317 170.773
L108.358 170.714
L108.482 170.05
L109.061 165.267
L109.102 165.352
L109.764 168.643
L110.301 172.147
L110.404 171.981
L110.528 171.482
L110.735 168.939
L111.107 163.381
L111.169 163.831
L111.5 165.472
L112.078 168.024
L112.264 168.7
L112.306 168.614
L112.388 167.62
L112.802 158.854
L113.029 154.902
L113.05 154.963
L113.132 155.4
L113.773 159.133
L114.248 161.596
L114.31 161.378
L114.455 159.338
L115.075 146.189
L115.158 147.104
L115.943 152.956
L116.191 154.345
L116.212 154.228
L116.336 151.134
L117.018 131.335
L117.038 131.385
L117.204 133.148
L118.175 143.471
L118.196 143.41
L118.299 140.396
L118.96 118.534
L119.022 118.356
L119.725 129.192
L120.18 133.405
L120.221 133.14
L120.324 129.581
L121.027 93.1842
L121.13 95.0382
L122.143 111.371
L122.164 111.42
L122.246 108.562
L122.908 74.3148
L122.949 74.5677
L123.114 77.5422
L124.148 95.7591
L124.21 95.3253
L124.54 92.6685
L124.602 92.7549
L124.726 93.5181
L124.974 96.6636
L125.842 110.556
L125.904 110.416
L126.256 101.944
L126.958 63.792
L126.979 64.0908
L127.496 74.1987
L127.806 79.6464
L128.136 84.6468
L128.157 84.3813
L128.405 77.0967
L128.508 78.4782
L128.818 82.4724
L128.942 82.1151
L128.963 82.2276
L129.066 83.2446
L130.12 99.2097
L130.389 97.3719
L130.451 97.4664
L130.596 98.415
L130.885 102.124
L131.608 111.776
L132.104 117.107
L132.146 116.708
L132.621 110.723
L132.828 109.612
L132.931 109.697
L133.158 110.493
L133.427 112.706
L134.088 119.274
L134.13 118.81
L134.564 111.282
L134.646 111.212
L134.688 111.277
L134.832 111.989
L135.122 115.373
L136.072 125.41
L136.134 124.621
L136.651 115.131
L136.796 114.686
L136.816 114.727
L136.92 115.678
L137.788 125.224
L138.056 127.668
L138.098 127.33
L138.78 114.988
L138.842 115.248
L139.296 120.392
L140.04 127.589
L140.082 127.296
L140.309 121.339
L140.66 115.04
L140.764 114.645
L140.805 114.795
L140.991 116.971
L141.818 125.609
L142.024 127.389
L142.066 127.144
L142.272 122.165
L142.644 114.819
L142.748 114.42
L142.768 114.475
L142.872 115.548
L143.864 127.505
L144.008 128.828
L144.05 128.639
L144.215 124.578
L144.608 115.945
L144.732 115.142
L144.773 115.3
L144.98 117.226
L145.992 127.123
L146.034 126.833
L146.282 119.9
L146.654 108.182
L146.798 101.698
L146.84 101.896
L146.922 102.418
L147.46 108.632
L147.997 114.575
L148.038 114.161
L148.762 88.5114
L148.803 89.0352
L149.464 99.5715
L149.96 105.404
L149.981 105.192
L150.084 99.7398
L150.746 50.1786
L150.828 52.29
L151.8 71.2701
L151.924 73.2186
L151.944 73.5966
L151.965 73.3518
L151.965 73.3518
L152.234 61.5267
L152.337 62.4447
L152.461 63.9603
L152.895 71.3322
L153.081 73.3878
L153.412 78.9633
L153.453 77.5665
L153.515 78.0777
L153.99 82.4679
L154.032 82.1844
L154.176 78.3405
L154.548 65.628
L154.61 64.9116
L154.672 65.1042
L154.858 68.2713
L155.52 81.6183
L155.892 87.4053
L155.954 87.9714
L155.995 87.8256
L156.098 85.437
L156.346 72.3951
L156.47 69.5754
L156.491 69.7086
L156.656 72.4428
L157.752 92.655
L157.917 94.0086
L157.938 93.852
L158.558 82.2501
L158.62 82.1178
L158.64 82.1943
L158.785 84.3489
L159.674 102.683
L159.901 107.301
L159.984 108.529
L160.087 118.023
L160.356 141.255
L160.686 147.69
L161.058 151.567
L161.513 154.013
L161.885 155.482
L161.906 155.316
L162.03 152.105
L162.65 127.875
L162.794 129.366
L163.228 134.665
L163.6 139.134
L163.869 141.127
L163.89 140.93
L164.055 136.08
L164.551 118.544
L164.572 118.564
L165.667 131.344
L165.894 132.901
L165.936 132.728
L166.039 131.076
L166.494 120.138
L166.535 120.363
L167.258 129.322
L167.713 132.542
L167.878 133.258
L167.92 133.043
L168.064 130.579
L168.519 119.916
L168.581 120.207
L168.912 124.859
L169.428 134.971
L169.883 140.056
L169.924 140.01
L170.048 139.028
L170.42 134.097
L170.503 134.398
L171.268 139.382
L171.516 140.814
L171.846 142.672
L171.867 142.554
L171.97 140.499
L172.28 126.049
L172.549 115.918
L172.57 116.143
L172.756 119.829
L173.004 125.858
L173.396 130.822
L173.81 134.171
L173.83 134.081
L173.934 132.296
L174.078 126.412
L174.45 112.336
L174.512 113.659
L174.802 121.075
L175.318 126.513
L175.587 128.281
L175.794 129.525
L175.835 129.19
L176.104 123.215
L176.434 114.806
L176.476 114.991
L177.426 127.519
L177.778 129.909
L177.819 129.613
L177.922 126.347
L178.315 103.749
L178.48 97.2396
L178.522 97.632
L179.948 118.86
L179.968 118.557
L180.402 107.467
L180.506 109.219
L180.795 114.004
L181.415 119.555
L181.746 122.518
L181.787 122.033
L181.932 115.452
L182.386 90.216
L182.428 90.7029
L182.676 98.3754
L183.13 104.659
L183.75 111.597
L183.792 111.091
L184.308 95.7186
L184.391 96.5619
L184.474 99.1953
L184.784 108.118
L185.176 113.352
L185.755 118.329
L185.796 118.118
L185.92 115.617
L186.189 110.767
L186.23 110.867
L186.354 112.985
L186.995 135.355
L187.47 163.281
L187.718 166.189
L187.801 165.652
L188.214 163.116
L188.297 163.013
L188.338 163.087
L189.578 166.937
L189.702 167.169
L189.764 167.048
L189.992 165.751
L190.26 163.369
L190.302 163.578
L190.984 168.042
L191.645 169.642
L191.707 169.71
L191.748 169.645
L191.872 168.874
L192.327 164.566
L192.43 165.04
L193.67 170.508
L193.691 170.487
L193.794 169.989
L194.249 167.524
L194.311 167.625
L195.096 171.729
L195.634 172.864
L195.675 172.652
L195.923 169.178
L196.336 160.447
L196.44 160.953
L197.287 164.6
L197.618 165.815
L197.659 165.659
L197.866 162.228
L198.176 154.075
L198.32 150.866
L198.362 151.117
L199.54 157.574
L199.622 157.861
L199.643 157.708
L199.788 154.574
L200.263 140.612
L200.366 141.679
L201.152 148.73
L201.606 151.18
L201.648 150.968
L201.792 147.732
L202.268 132.724
L202.35 133.455
L202.64 137.375
L203.115 143.368
L203.611 146.598
L203.632 146.522
L203.714 145.351
L203.962 136.801
L204.252 128.012
L204.272 128.078
L205.471 138.833
L205.574 139.568
L205.616 139.372
L205.74 136.38
L206.194 124.015
L206.236 124.139
L206.711 128.942
L207.579 136.949
L207.6 136.882
L207.682 135.589
L207.951 125.919
L208.199 118.674
L208.22 118.704
L208.84 125.444
L209.604 132.725
L209.625 132.683
L209.728 131.658
L210.162 124.404
L210.245 124.964
L211.402 135.824
L211.547 136.848
L211.588 136.476
L211.754 131.776
L212.105 122.413
L212.146 122.288
L212.167 122.331
L212.167 122.331
L212.312 123.698
L213.572 135.859
L213.634 135.535
L213.779 133.084
L214.13 124.43
L214.192 124.727
L215.556 138.172
L215.598 138.069
L215.742 136.359
L216.073 132.729
L216.094 132.829
L216.176 133.591
L216.59 137.21
L216.817 140.305
L217.499 148.906
L217.52 148.863
L217.623 147.319
L218.057 138.246
L218.16 138.966
L218.78 145.065
L219.504 158.736
L219.545 158.646
L219.71 156.755
L220.082 152.005
L220.144 152.5
L220.413 154.318
L221.157 157.259
L221.446 158.237
L221.467 158.17
L221.612 156.002
L221.818 150.25
L222.108 141.588
L222.17 142.041
L222.376 144.931
L222.748 149.713
L223.182 151.942
L223.43 152.917
L223.472 152.649
L223.72 147.775
L224.092 137.039
L224.195 138.495
L224.505 142.214
L225.104 145.83
L225.476 148.005
L225.538 147.904
L225.662 147.166
L226.014 142.332
L226.076 142.635
L226.365 144.35
L227.006 147.84
L227.336 151.824
L227.502 153.369
L227.522 153.331
L227.626 152.54
L227.998 147.879
L228.06 148.199
L228.308 150.8
L228.845 153.405
L229.382 155.775
L229.403 155.747
L229.527 154.016
L229.796 147.233
L230.044 139.936
L230.106 140.505
L230.643 145.076
L231.098 150.359
L231.408 151.668
L231.428 151.622
L231.511 150.932
L231.759 146.624
L232.007 142.297
L232.048 142.583
L232.668 146.198
L233.433 149.514
L233.495 149.427
L233.64 148.626
L233.888 147.405
L233.908 147.412
L233.991 147.701
L234.404 149.67
L235.396 153.094
L235.417 153.065
L235.541 152.479
L235.913 150.287
L235.954 150.361
L237.38 155.417
L237.463 155.202
L237.67 153.688
L237.876 152.378
L237.938 152.469
L238.496 154.742
L239.364 157.544
L239.385 157.52
L239.488 157.062
L239.881 154.55
L239.943 154.775
L240.666 158.285
L241.328 160.381
L241.39 160.33
L241.534 159.624
L241.824 156.895
L241.886 156.911
L242.258 158.586
L243.126 161.486
L243.291 161.951
L243.332 161.893
L243.456 160.937
L243.849 156.924
L243.911 157.091
L244.965 160.98
L245.316 162.049
L245.358 161.968
L245.544 160.957
L245.792 157.984
L245.895 157.006
L245.936 157.148
L246.577 160.161
L247.259 162.574
L247.321 162.46
L247.486 161.517
L247.817 159.498
L247.858 159.553
L248.168 160.912
L248.602 162.449
L248.892 163.142
L249.284 164.183
L249.326 164.134
L249.47 163.492
L249.76 162.214
L249.801 162.242
L249.966 163.049
L250.524 165.252
L251.02 166.92
L251.144 169.336
L251.351 172.063
L251.454 172.202
L251.496 172.177
L251.578 172.271
L251.847 173.099
L252.095 174.297
L252.508 175.278
L253.211 176.426
L253.273 176.284
L253.418 175.537
L253.666 174.636
L253.81 174.388
L253.852 174.487
L254.182 175.384
L254.864 176.655
L255.278 177.229
L255.298 177.209
L255.526 176.714
L255.712 176.431
L255.732 176.442
L255.856 176.716
L256.208 177.404
L257.179 178.812
L257.22 178.754
L257.716 177.334
L257.778 177.391
L258.667 178.751
L259.225 179.381
L259.246 179.357
L259.411 178.934
L259.7 178.052
L259.742 178.088
L261.188 180.707
L261.25 180.615
L261.478 179.538
L261.746 178.4
L261.788 178.541
L262.077 179.862
L262.552 180.867
L263.193 181.75
L263.234 181.689
L263.4 181.036
L263.73 179.802
L263.875 180.08
L265.156 182.427
L265.239 182.262
L265.714 180.502
L265.797 180.628
L266.603 181.911
L267.161 182.55
L267.202 182.5
L267.409 181.867
L267.698 181.04
L267.74 181.072
L268.091 181.652
L269.145 182.95
L269.331 182.728
L269.455 182.343
L269.641 181.797
L269.662 181.806
L269.724 182.067
L270.22 185.305
L270.509 185.874
L271.088 186.45
L271.212 186.346
L271.439 185.629
L271.666 185.069
L271.687 185.082
L271.873 185.403
L272.534 186.142
L273.175 186.484
L273.444 185.925
L273.63 185.723
L273.65 185.734
L274.374 186.441
L274.973 186.935
L275.138 186.938
L275.324 186.466
L275.634 185.656
L275.655 185.671
L276.254 186.62
L276.978 187.219
L277.122 187.207
L277.226 186.893
L277.639 185.378
L277.66 185.39
L278.879 186.905
L279.065 187.007
L279.086 186.976
L279.334 186.309
L279.602 185.706
L279.623 185.713
L279.995 186.183
L280.987 187.269
L281.111 187.171
L281.545 186.297
L281.648 186.43
L282.124 187.388
L282.806 190.379
L282.992 190.551
L283.012 190.535
L283.488 189.861
L283.612 189.779
L283.632 189.814
L283.942 190.084
L284.686 190.382
L285.058 190.379
L285.224 189.95
L285.596 188.693
L285.678 188.766
L286.918 189.707
L287.001 189.696
L287.022 189.643
L287.394 188.241
L287.58 187.521
L287.642 187.595
L288.468 188.434
L288.944 188.7
L288.964 188.662
L289.192 187.884
L289.564 186.494
L289.584 186.517
L290.845 187.831
L291.01 187.838
L291.238 187.38
L291.506 186.989
L291.527 187.008
L292.622 188.129
L293.015 188.321
L293.511 187.907
L293.552 187.96
L294.048 188.811
L294.586 189.941
L294.916 190.082
L295.268 189.805
L295.288 189.826
L296.136 190.421
L296.983 190.639
L297.231 190.322
L297.458 190.163
L298.636 191.008
L298.926 191.125
L299.422 190.952
L300.434 191.399
L300.972 191.456
L301.468 191.241
L301.984 191.45
L302.873 191.66
L303.534 190.766
L304.857 191.389
L305.064 191.178
L305.436 190.805
L306.862 191.387
L307.234 190.899
L307.44 190.809
L308.494 191.323
L308.887 191.348
L309.073 190.973
L309.424 190.253
L309.466 190.287
L310.478 190.942
L310.871 190.984
L311.45 190.518
L312.669 191.132
L312.834 191.085
L313.496 190.47
L314.715 191.137
L314.839 191.013
L315.376 189.994
L315.48 190.068
L316.72 190.851
L316.885 190.571
L317.36 189.438
L317.443 189.502
L318.724 190.327
L318.89 190.093
L319.324 189.444
L319.778 189.827
L320.729 190.437
L320.894 190.256
L321.328 189.109
L321.432 189.194
L322.713 190.184
L322.734 190.154
L323.064 189.395
L323.312 188.844
L323.354 188.889
L323.808 189.29
L324.718 189.798
L324.986 189.237
L325.276 188.733
L325.524 188.968
L326.64 189.863
L326.722 189.731
L327.28 188.419
L327.301 188.436
L328.644 189.571
L328.81 189.286
L329.264 188.379
L329.285 188.396
L330.546 189.561
L330.67 189.514
L330.897 189.031
L331.228 188.414
L331.248 188.423
L332.282 189.466
L332.633 189.69
L332.819 189.425
L333.232 188.785
L333.253 188.802
L334.431 189.826
L334.638 189.862
L334.927 189.416
L335.196 189.105
L335.237 189.156
L335.692 189.824
L336.518 190.411
L336.663 190.321
L337.18 189.644
L337.221 189.68
L337.8 190.132
L338.523 190.531
L338.544 190.499
L338.936 189.518
L339.205 188.78
L339.267 188.844
L340.218 189.642
L340.528 189.747
L340.734 189.219
L341.189 187.921
L341.23 187.97
L342.388 189.213
L342.512 189.234
L342.532 189.203
L342.698 188.751
L343.173 187.1
L343.256 187.205
L344.186 188.313
L344.434 188.556
L344.475 188.481
L344.764 187.5
L345.157 185.882
L345.281 186.048
L345.756 186.961
L346.376 188.21
L346.438 188.251
L346.48 188.177
L346.728 187.331
L347.141 185.522
L347.224 185.674
L347.761 186.856
L348.298 187.765
L348.402 187.848
L348.422 187.811
L348.67 186.961
L349.063 185.639
L349.084 185.656
L349.166 185.989
L349.58 187.687
L349.952 188.311
L350.386 188.694
L350.572 188.209
L351.068 186.354
L351.192 186.511
L352.122 187.475
L352.39 187.637
L352.411 187.591
L352.7 186.548
L353.114 184.657
L353.217 184.824
L354.312 186.336
L354.374 186.261
L354.643 185.102
L355.077 182.686
L355.139 182.87
L355.552 184.303
L356.09 185.021
L356.338 185.287
L356.379 185.224
L356.586 184.454
L357.02 182.265
L357.102 182.441
L357.392 183.011
L358.363 184.176
L358.508 183.929
L358.962 182.867
L359.004 182.899
L359.541 183.893
L360.14 184.77
L360.306 184.972
L360.368 184.864
L360.946 183.587
L360.967 183.605
L361.132 183.988
L361.566 184.745
L362.269 185.603
L362.29 185.557
L362.558 184.335
L362.972 181.666
L363.116 182.002
L363.509 182.994
L364.253 184.009
L364.336 183.839
L364.625 182.437
L364.997 180.389
L365.059 180.573
L365.348 181.212
L365.741 182.011
L366.051 183.348
L366.278 183.939
L366.402 183.613
L366.94 181.41
L367.002 181.517
L367.394 182.698
L367.932 183.475
L368.283 183.837
L368.304 183.815
L368.469 183.427
L368.882 182.354
L368.903 182.371
L369.13 182.866
L369.585 184.054
L370.184 186.819
L370.267 186.77
L370.515 186.059
L370.825 185.294
L370.908 185.414
L371.052 186.795
L371.28 187.964
L371.59 188.348
L372.23 188.726
L372.416 188.304
L372.747 186.976
L372.933 186.351
L372.974 186.378
L373.346 187.033
L373.739 187.863
L374.132 188.372
L374.276 188.374
L374.524 188.034
L374.793 187.707
L374.938 187.626
L374.958 187.655
L375.351 188.182
L376.116 188.733
L376.178 188.649
L376.529 187.434
L376.942 185.554
L377.087 185.69
L377.418 186.251
L378.141 187.728
L378.265 187.531
L378.575 186.402
L378.926 184.74
L379.009 184.894
L379.278 185.574
L379.918 187.007
L380.166 187.282
L380.208 187.239
L380.373 186.869
L380.745 185.98
L380.869 186.074
L381.448 186.86
L382.15 187.482
L382.192 187.42
L382.378 186.785
L382.791 185.3
L382.894 185.454
L383.287 186.198
L383.907 186.878
L384.155 186.973
L384.341 186.576
L384.796 185.611
L384.94 185.854
L385.395 186.482
L386.118 187.258
L386.18 187.147
L386.408 186.267
L386.842 184.603
L387.007 184.867
L387.978 186.304
L388.04 186.347
L388.082 186.285
L388.288 185.42
L388.867 182.055
L388.95 182.252
L389.714 183.657
L390.024 184.143
L390.066 184.09
L390.21 183.427
L390.789 179.892
L390.851 179.958
L392.029 183.153
L392.07 183.084
L392.318 182.209
L392.587 180.514
L392.814 179.047
L392.856 179.141
L393.951 182.038
L393.992 181.966
L394.447 178.614
L394.798 175.779
L394.881 176.111
L395.315 177.588
L395.956 178.966
L396.018 178.798
L396.307 176.609
L396.658 173.968
L396.72 174.132
L397.63 178.653
L397.981 179.376
L398.002 179.364
L398.126 179.034
L398.684 176.634
L398.766 176.806
L399.324 178.422
L399.965 179.8
L400.006 179.767
L400.151 179.392
L400.42 178.05
L400.709 176.353
L400.75 176.437
L401.908 180.764
L401.97 180.749
L401.99 180.705
L402.135 179.931
L402.652 176.768
L402.714 176.725
L402.755 176.78
L403.582 179.072
L403.933 179.804
L403.995 179.648
L404.181 178.434
L404.698 174.626
L404.718 174.675
L405.938 179.323
L406.041 179.141
L406.268 178.212
L406.599 177.034
L406.682 177.187
L407.364 179.651
L407.901 180.665
L407.942 180.609
L408.149 179.253
L408.624 176.197
L408.686 176.264
L409.885 179.72
L409.968 179.546
L410.154 178.393
L410.526 176.507
L410.588 176.491
L410.629 176.56
L410.836 177.464
L411.394 179.28
L411.807 180.458
L411.848 180.382
L412.014 179.059
L412.551 173.231
L412.675 172.239
L412.737 172.436
L413.605 175.892
L413.812 176.268
L413.832 176.235
L413.936 175.776
L414.411 171.231
L414.638 169.134
L414.68 169.237
L414.99 171.432
L415.589 173.706
L415.754 174.301
L415.816 174.094
L416.023 171.844
L416.54 163.625
L416.664 161.616
L416.726 161.924
L417.738 167.791
L417.8 167.297
L418.255 158.789
L418.668 150.446
L418.71 150.896
L419.681 163.378
L419.743 163.603
L419.805 163.529
L419.888 163.091
L420.094 159.506
L420.59 150.093
L420.632 150.219
L421.417 158.005
L421.768 161.399
L421.789 161.444
L421.789 161.444
L421.789 161.444
L421.851 160.981
L422.43 148.05
L422.616 144.041
L422.657 144.395
L423.484 151.574
L423.752 153.456
L423.794 153.382
L423.918 152.181
L424.496 144.185
L424.517 144.266
L424.682 145.933
L425.137 152.826
L425.736 161.517
L425.798 161.621
L425.84 161.495
L425.984 160.255
L426.501 154.468
L426.563 154.612
L426.873 157.298
L427.08 161.697
L427.679 179.927
L427.782 180.119
L427.824 180.079
L427.948 179.609
L428.423 176.254
L428.568 175.369
L428.609 175.524
L428.94 176.679
L429.291 177.389
L429.663 178.148
L429.746 178.015
L429.911 177.128
L430.531 171.822
L430.634 172.148
L431.709 176.414
L431.73 176.397
L431.833 176.139
L432.412 171.963
L432.494 172.248
L432.536 172.314
L433.156 175.46
L433.59 176.529
L433.61 176.489
L433.796 175.152
L434.396 167.417
L434.561 164.858
L434.602 165.062
L434.892 166.063
L435.036 166.505
L435.574 169.14
L435.636 168.702
L435.842 165.31
L436.38 154.903
L436.545 151.044
L436.586 151.36
L437.578 157.857
L437.62 157.765
L437.723 156.82
L438.012 151.325
L438.426 144.921
L438.446 144.941
L438.529 145.42
L439.542 153.733
L439.624 152.174
L440.513 126.096
L440.596 127.154
L441.112 133.483
L441.526 137.549
L441.567 137.272
L441.712 132.737
L442.476 97.9623
L442.6 99.9648
L443.551 114.631
L443.592 114.679
L443.613 114.609
L443.737 113.604
L444.088 103.867
L444.357 97.0173
L444.398 97.092
L444.791 104.313
L445.39 116.614
L445.494 117.712
L445.535 117.448
L445.659 113.454
L446.403 72.6246
L446.506 74.0025
L447.002 87.2523
L447.333 95.0085
L447.519 97.938
L447.56 97.6491
L447.767 91.3491
L448.118 69.7671
L448.428 50.0742
L448.47 50.5314
L449.544 80.7984
L449.627 80.1054
L450.226 68.9571
L450.412 71.1405
L451.074 85.3632
L451.487 91.4895
L451.528 91.2339
L451.714 86.3775
L452.314 68.319
L452.396 70.1631
L452.706 78.7968
L453.43 92.3373
L453.471 91.9944
L453.678 86.085
L453.967 71.8362
L454.318 54.0378
L454.36 53.9019
L454.38 53.9532
L454.38 53.9532
L454.463 55.8891
L455 66.7539
L455.393 74.0187
L455.414 73.5453
L455.558 69.7104
L455.6 70.1271
L455.806 75.8142
L456.054 83.0754
L456.364 74.4111
L456.406 74.1132
L456.406 74.1132
L456.406 74.1132
L457.377 93.8385
L457.418 92.8296
L457.77 75.5982
L457.914 71.5527
L457.956 71.8767
L458.162 77.5476
L458.968 100.042
L459.444 108.222
L459.898 116.696
L459.96 115.93
L460.332 109.158
L460.353 109.1
L460.353 109.1
L460.353 109.1
L460.436 109.775
L460.89 114.518
L461.056 116.535
L461.159 116.428
L461.18 116.288
L461.221 116.342
L461.221 116.342
L461.345 116.96
L461.386 116.928
L461.51 114.702
L462.006 104.438
L462.11 103.91
L462.13 104.027
L462.213 104.184
L462.399 105.515
L463.329 121.247
L463.391 120.55
L463.536 115.244
L464.197 89.5707
L464.259 89.5068
L464.3 89.5761
L464.342 89.8317
L465.313 107.917
L465.334 107.78
L465.437 104.723
L465.871 93.2076
L466.098 91.3527
L466.16 91.3032
L466.181 91.3653
L466.388 93.8412
L467.028 104.773
L467.235 107.199
L467.297 107.822
L467.338 107.327
L467.462 105.894
L467.504 106.127
L467.69 109.508
L468.785 131.859
L468.806 131.827
L468.806 131.827
L468.806 131.827
L468.826 131.967
L468.847 131.892
L468.847 131.892
L469.095 129.22
L469.281 130.272
L469.446 129.309
L469.467 129.404
L469.632 130.375
L469.984 135.562
L470.356 140.2
L470.376 139.792
L470.397 139.628
L470.438 139.761
L470.438 139.761
L470.893 143.991
L470.955 143.712
L470.976 143.567
L470.976 143.567
L470.976 143.567
L471.12 144.176
L471.141 144.011
L471.368 138.795
L472.154 110.82
L472.278 108.805
L472.34 109.741
L473.208 127.145
L473.228 127.271
L473.228 127.271
L473.228 127.271
L473.394 124.918
L473.518 120.719
L474.117 101.103
L474.158 101.372
L474.324 104.809
L474.758 115
L475.336 124.827
L475.378 125.204
L477.155 147.717
L477.899 153.487
L478.106 154.413
L478.126 154.407
L478.333 155.687
L478.354 155.552
L478.395 153.823
L478.684 134.487
L478.85 132.364
L479.098 135.223
L479.201 136.405
L479.242 136.105
L479.346 133.69
L479.8 117.419
L480.214 98.496
L480.296 100.247
L480.792 109.685
L481.144 115.512
L481.185 114.849
L481.495 104.442
L481.557 104.779
L481.743 108.54
L482.818 132.061
L483.727 144.974
L484.368 152.782
L484.388 152.756
L485.029 133.32
L485.091 133.574
L485.112 133.675
L485.112 133.675
L485.112 133.675
L485.236 130.072
L485.814 112.605
L485.897 111.944
L486.124 110.475
L486.145 110.512
L486.228 111.932
L486.538 118.446
L487.116 126.425
L487.158 126.521
L487.178 126.431
L487.344 123.835
L487.592 118.166
L488.067 106.757
L488.108 107.505
L488.563 116.825
L489.162 124.775
L489.204 124.437
L489.328 122.229
L489.514 116.374
L490.072 100.304
L490.113 100.64
L490.216 102.819
L490.754 120.751
L491.064 124.66
L491.084 124.394
L491.229 118.464
L492.014 81.3915
L492.035 81.4347
L492.035 81.4347
L492.035 81.4347
L492.076 81.2889
L492.076 81.2889
L492.076 81.2889
L492.2 83.1042
L493.089 99.7416
L493.11 99.6849
L493.234 98.3898
L493.296 98.7912
L493.544 102.897
L493.606 101.981
L493.626 101.837
L493.626 101.837
L493.626 101.837
L493.709 102.211
L493.709 102.211
L493.709 102.211
L493.957 99.0243
L493.978 99.0657
L494.081 100.211
L494.164 101.652
L494.577 113.99
L495.032 121.333
L495.094 120.677
L495.238 115.194
L495.879 87.6879
L496.044 85.3389
L496.086 85.6044
L496.54 95.3622
L497.367 110.209
L497.429 111.313
L497.491 110.474
L497.553 109.813
L497.574 110.233
L497.842 113.889
L497.884 114.256
L497.925 113.977
L498.132 110.791
L498.214 111.377
L498.504 115.548
L499.02 122.691
L499.041 122.612
L499.165 119.229
L499.496 109.04
L499.537 109.17
L499.661 111.294
L499.847 114.184
L499.868 113.64
L500.074 111.88
L500.55 118.71
L500.839 121.677
L501.025 123.241
L501.066 122.987
L501.211 120.333
L501.542 113.163
L501.583 113.101
L501.604 113.18
L501.604 113.18
L501.728 114.083
L502.162 120.001
L502.451 121.908
L502.864 129.528
L503.009 132.259
L503.05 131.891
L503.236 127.288
L503.98 104.997
L504.022 104.637
L504.042 104.751
L504.042 104.751
L504.538 113.359
L504.931 119.379
L504.972 119.088
L505.117 113.331
L505.448 101.009
L505.489 100.832
L505.53 100.965
L505.675 103.206
L506.254 117.444
L506.956 131.025
L507.328 135.878
L507.349 135.506
L507.37 135.815
L507.37 135.815
L507.39 136.101
L507.39 136.101
L507.39 136.101
L507.659 129.855
L507.68 130.017
L507.845 127.173
L507.866 126.819
L507.866 126.819
L507.866 126.819
L508.031 128.066
L508.155 128.389
L508.176 128.333
L508.362 123.971
L508.465 122.571
L508.506 122.891
L508.92 129.067
L509.002 128.441
L509.147 124.781
L509.932 92.2473
L510.036 93.5667
L510.408 99.3591
L510.966 108.68
L511.069 110.099
L511.379 116.439
L511.503 116.291
L511.586 116.17
L511.627 116.264
L511.751 117.548
L511.958 121.669
L512.598 133.125
L513.301 142.002
L514.024 150.341
L514.045 150.502
L514.066 149.746
L514.169 149.994
L514.21 150.121
L514.21 150.121
L514.21 150.121
L514.231 149.979
L514.314 150.114
L514.355 150.158
L514.458 150.952
L514.52 150.877
L514.686 148.984
L514.727 149.396
L514.748 149.494
L514.892 148.384
L514.913 148.363
L515.037 147.218
L515.058 147.354
L515.161 147.521
L515.182 147.406
L515.182 147.406
L515.182 147.406
L515.264 147.824
L515.285 147.298
L515.326 147.704
L515.326 147.704
L515.368 148.096
L515.45 147.962
L515.471 147.809
L515.471 147.809
L515.471 147.809
L516.029 153.257
L516.442 155.708
L516.484 155.648" style="fill:none;stroke:#008000;"/>
   </g>
   <g id="matplotlib.axis_3">
    <g id="ytick_8">
     <g id="line2d_34">
      <defs>
       <path d="
M0 0
L-4 0" id="m1a32005dea" style="stroke:#000000;stroke-linecap:butt;stroke-width:0.5;"/>
      </defs>
      <g>
       <use style="stroke:#000000;stroke-linecap:butt;stroke-width:0.5;" x="518.4" xlink:href="#m1a32005dea" y="194.4"/>
      </g>
     </g>
     <g id="text_18">
      <!-- 0 -->
      <g transform="translate(522.4 197.431261875)scale(0.08327999999999999 -0.08327999999999999)">
       <use xlink:href="#DejaVuSans-30"/>
      </g>
     </g>
    </g>
    <g id="ytick_9">
     <g id="line2d_35">
      <g>
       <use style="stroke:#000000;stroke-linecap:butt;stroke-width:0.5;" x="518.4" xlink:href="#m1a32005dea" y="176.4"/>
      </g>
     </g>
     <g id="text_19">
      <!-- 2 -->
      <g transform="translate(522.4 179.49046875)scale(0.08327999999999999 -0.08327999999999999)">
       <use xlink:href="#DejaVuSans-32"/>
      </g>
     </g>
    </g>
    <g id="ytick_10">
     <g id="line2d_36">
      <g>
       <use style="stroke:#000000;stroke-linecap:butt;stroke-width:0.5;" x="518.4" xlink:href="#m1a32005dea" y="158.4"/>
      </g>
     </g>
     <g id="text_20">
      <!-- 4 -->
      <g transform="translate(522.4 161.43581625)scale(0.08327999999999999 -0.08327999999999999)">
       <use xlink:href="#DejaVuSans-34"/>
      </g>
     </g>
    </g>
    <g id="ytick_11">
     <g id="line2d_37">
      <g>
       <use style="stroke:#000000;stroke-linecap:butt;stroke-width:0.5;" x="518.4" xlink:href="#m1a32005dea" y="140.4"/>
      </g>
     </g>
     <g id="text_21">
      <!-- 6 -->
      <g transform="translate(522.4 143.431261875)scale(0.08327999999999999 -0.08327999999999999)">
       <use xlink:href="#DejaVuSans-36"/>
      </g>
     </g>
    </g>
    <g id="ytick_12">
     <g id="line2d_38">
      <g>
       <use style="stroke:#000000;stroke-linecap:butt;stroke-width:0.5;" x="518.4" xlink:href="#m1a32005dea" y="122.4"/>
      </g>
     </g>
     <g id="text_22">
      <!-- 8 -->
      <defs>
       <path d="
M31.7812 34.625
Q24.75 34.625 20.7188 30.8594
Q16.7031 27.0938 16.7031 20.5156
Q16.7031 13.9219 20.7188 10.1562
Q24.75 6.39062 31.7812 6.39062
Q38.8125 6.39062 42.8594 10.1719
Q46.9219 13.9688 46.9219 20.5156
Q46.9219 27.0938 42.8906 30.8594
Q38.875 34.625 31.7812 34.625
M21.9219 38.8125
Q15.5781 40.375 12.0312 44.7188
Q8.5 49.0781 8.5 55.3281
Q8.5 64.0625 14.7188 69.1406
Q20.9531 74.2188 31.7812 74.2188
Q42.6719 74.2188 48.875 69.1406
Q55.0781 64.0625 55.0781 55.3281
Q55.0781 49.0781 51.5312 44.7188
Q48 40.375 41.7031 38.8125
Q48.8281 37.1562 52.7969 32.3125
Q56.7812 27.4844 56.7812 20.5156
Q56.7812 9.90625 50.3125 4.23438
Q43.8438 -1.42188 31.7812 -1.42188
Q19.7344 -1.42188 13.25 4.23438
Q6.78125 9.90625 6.78125 20.5156
Q6.78125 27.4844 10.7812 32.3125
Q14.7969 37.1562 21.9219 38.8125
M18.3125 54.3906
Q18.3125 48.7344 21.8438 45.5625
Q25.3906 42.3906 31.7812 42.3906
Q38.1406 42.3906 41.7188 45.5625
Q45.3125 48.7344 45.3125 54.3906
Q45.3125 60.0625 41.7188 63.2344
Q38.1406 66.4062 31.7812 66.4062
Q25.3906 66.4062 21.8438 63.2344
Q18.3125 60.0625 18.3125 54.3906" id="DejaVuSans-38"/>
      </defs>
      <g transform="translate(522.4 125.431261875)scale(0.08327999999999999 -0.08327999999999999)">
       <use xlink:href="#DejaVuSans-38"/>
      </g>
     </g>
    </g>
    <g id="ytick_13">
     <g id="line2d_39">
      <g>
       <use style="stroke:#000000;stroke-linecap:butt;stroke-width:0.5;" x="518.4" xlink:href="#m1a32005dea" y="104.4"/>
      </g>
     </g>
     <g id="text_23">
      <!-- 10 -->
      <g transform="translate(522.4 107.431261875)scale(0.08327999999999999 -0.08327999999999999)">
       <use xlink:href="#DejaVuSans-31"/>
       <use x="63.623046875" xlink:href="#DejaVuSans-30"/>
      </g>
     </g>
    </g>
    <g id="ytick_14">
     <g id="line2d_40">
      <g>
       <use style="stroke:#000000;stroke-linecap:butt;stroke-width:0.5;" x="518.4" xlink:href="#m1a32005dea" y="86.4"/>
      </g>
     </g>
     <g id="text_24">
      <!-- 12 -->
      <g transform="translate(522.4 89.49046875)scale(0.08327999999999999 -0.08327999999999999)">
       <use xlink:href="#DejaVuSans-31"/>
       <use x="63.623046875" xlink:href="#DejaVuSans-32"/>
      </g>
     </g>
    </g>
    <g id="ytick_15">
     <g id="line2d_41">
      <g>
       <use style="stroke:#000000;stroke-linecap:butt;stroke-width:0.5;" x="518.4" xlink:href="#m1a32005dea" y="68.4"/>
      </g>
     </g>
     <g id="text_25">
      <!-- 14 -->
      <g transform="translate(522.4 71.43581625)scale(0.08327999999999999 -0.08327999999999999)">
       <use xlink:href="#DejaVuSans-31"/>
       <use x="63.623046875" xlink:href="#DejaVuSans-34"/>
      </g>
     </g>
    </g>
    <g id="ytick_16">
     <g id="line2d_42">
      <g>
       <use style="stroke:#000000;stroke-linecap:butt;stroke-width:0.5;" x="518.4" xlink:href="#m1a32005dea" y="50.4"/>
      </g>
     </g>
     <g id="text_26">
      <!-- 16 -->
      <g transform="translate(522.4 53.431261875)scale(0.08327999999999999 -0.08327999999999999)">
       <use xlink:href="#DejaVuSans-31"/>
       <use x="63.623046875" xlink:href="#DejaVuSans-36"/>
      </g>
     </g>
    </g>
    <g id="ytick_17">
     <g id="line2d_43">
      <g>
       <use style="stroke:#000000;stroke-linecap:butt;stroke-width:0.5;" x="518.4" xlink:href="#m1a32005dea" y="32.4"/>
      </g>
     </g>
     <g id="text_27">
      <!-- 18 -->
      <g transform="translate(522.4 35.431261875)scale(0.08327999999999999 -0.08327999999999999)">
       <use xlink:href="#DejaVuSans-31"/>
       <use x="63.623046875" xlink:href="#DejaVuSans-38"/>
      </g>
     </g>
    </g>
    <g id="text_28">
     <!-- 3 m Avg Diatom Biomass [uM N] -->
     <defs>
      <path d="
M19.6719 34.8125
L19.6719 8.10938
L35.5 8.10938
Q43.4531 8.10938 47.2812 11.4062
Q51.125 14.7031 51.125 21.4844
Q51.125 28.3281 47.2812 31.5625
Q43.4531 34.8125 35.5 34.8125
z

M19.6719 64.7969
L19.6719 42.8281
L34.2812 42.8281
Q41.5 42.8281 45.0312 45.5312
Q48.5781 48.25 48.5781 53.8125
Q48.5781 59.3281 45.0312 62.0625
Q41.5 64.7969 34.2812 64.7969
z

M9.8125 72.9062
L35.0156 72.9062
Q46.2969 72.9062 52.3906 68.2188
Q58.5 63.5312 58.5 54.8906
Q58.5 48.1875 55.375 44.2344
Q52.25 40.2812 46.1875 39.3125
Q53.4688 37.75 57.5 32.7812
Q61.5312 27.8281 61.5312 20.4062
Q61.5312 10.6406 54.8906 5.3125
Q48.25 0 35.9844 0
L9.8125 0
z
" id="DejaVuSans-42"/>
     </defs>
     <g style="fill:#008000;" transform="translate(544.675395 178.922491875)rotate(-90.0)scale(0.08327999999999999 -0.08327999999999999)">
      <use xlink:href="#DejaVuSans-33"/>
      <use x="63.623046875" xlink:href="#DejaVuSans-20"/>
      <use x="95.41015625" xlink:href="#DejaVuSans-6d"/>
      <use x="192.822265625" xlink:href="#DejaVuSans-20"/>
      <use x="224.609375" xlink:href="#DejaVuSans-41"/>
      <use x="287.142578125" xlink:href="#DejaVuSans-76"/>
      <use x="346.322265625" xlink:href="#DejaVuSans-67"/>
      <use x="409.798828125" xlink:href="#DejaVuSans-20"/>
      <use x="441.5859375" xlink:href="#DejaVuSans-44"/>
      <use x="518.587890625" xlink:href="#DejaVuSans-69"/>
      <use x="546.37109375" xlink:href="#DejaVuSans-61"/>
      <use x="607.650390625" xlink:href="#DejaVuSans-74"/>
      <use x="646.859375" xlink:href="#DejaVuSans-6f"/>
      <use x="708.041015625" xlink:href="#DejaVuSans-6d"/>
      <use x="805.453125" xlink:href="#DejaVuSans-20"/>
      <use x="837.240234375" xlink:href="#DejaVuSans-42"/>
      <use x="905.84375" xlink:href="#DejaVuSans-69"/>
      <use x="933.626953125" xlink:href="#DejaVuSans-6f"/>
      <use x="994.80859375" xlink:href="#DejaVuSans-6d"/>
      <use x="1092.220703125" xlink:href="#DejaVuSans-61"/>
      <use x="1153.5" xlink:href="#DejaVuSans-73"/>
      <use x="1205.599609375" xlink:href="#DejaVuSans-73"/>
      <use x="1257.69921875" xlink:href="#DejaVuSans-20"/>
      <use x="1289.486328125" xlink:href="#DejaVuSans-5b"/>
      <use x="1328.5" xlink:href="#DejaVuSans-75"/>
      <use x="1391.87890625" xlink:href="#DejaVuSans-4d"/>
      <use x="1478.158203125" xlink:href="#DejaVuSans-20"/>
      <use x="1509.9453125" xlink:href="#DejaVuSans-4e"/>
      <use x="1584.75" xlink:href="#DejaVuSans-5d"/>
     </g>
    </g>
   </g>
  </g>
  <g id="legend_1">
   <g id="patch_7">
    <path d="
M498.646 24.6089
L572.526 24.6089
L572.526 3.474
L498.646 3.474
L498.646 24.6089
z
" style="fill:#ffffff;stroke:#000000;"/>
   </g>
   <g id="line2d_44">
    <path d="
M503.51 9.10079
L513.237 9.10079" style="fill:none;stroke:#000000;"/>
   </g>
   <g id="line2d_45"/>
   <g id="text_29">
    <!-- Actual to Avg -->
    <defs>
     <path d="
M9.42188 75.9844
L18.4062 75.9844
L18.4062 0
L9.42188 0
z
" id="DejaVuSans-6c"/>
    </defs>
    <g transform="translate(520.879561875 11.532594375)scale(0.06948 -0.06948)">
     <use xlink:href="#DejaVuSans-41"/>
     <use x="66.658203125" xlink:href="#DejaVuSans-63"/>
     <use x="121.638671875" xlink:href="#DejaVuSans-74"/>
     <use x="160.84765625" xlink:href="#DejaVuSans-75"/>
     <use x="224.2265625" xlink:href="#DejaVuSans-61"/>
     <use x="285.505859375" xlink:href="#DejaVuSans-6c"/>
     <use x="313.2890625" xlink:href="#DejaVuSans-20"/>
     <use x="345.076171875" xlink:href="#DejaVuSans-74"/>
     <use x="384.28515625" xlink:href="#DejaVuSans-6f"/>
     <use x="445.466796875" xlink:href="#DejaVuSans-20"/>
     <use x="477.25390625" xlink:href="#DejaVuSans-41"/>
     <use x="539.787109375" xlink:href="#DejaVuSans-76"/>
     <use x="598.966796875" xlink:href="#DejaVuSans-67"/>
    </g>
   </g>
   <g id="line2d_46">
    <path d="
M503.51 19.2992
L513.237 19.2992" style="fill:none;stroke:#008000;"/>
   </g>
   <g id="line2d_47"/>
   <g id="text_30">
    <!-- Diatom Bloom -->
    <g transform="translate(520.879561875 21.730955625)scale(0.06948 -0.06948)">
     <use xlink:href="#DejaVuSans-44"/>
     <use x="77.001953125" xlink:href="#DejaVuSans-69"/>
     <use x="104.78515625" xlink:href="#DejaVuSans-61"/>
     <use x="166.064453125" xlink:href="#DejaVuSans-74"/>
     <use x="205.2734375" xlink:href="#DejaVuSans-6f"/>
     <use x="266.455078125" xlink:href="#DejaVuSans-6d"/>
     <use x="363.8671875" xlink:href="#DejaVuSans-20"/>
     <use x="395.654296875" xlink:href="#DejaVuSans-42"/>
     <use x="464.2578125" xlink:href="#DejaVuSans-6c"/>
     <use x="492.041015625" xlink:href="#DejaVuSans-6f"/>
     <use x="553.22265625" xlink:href="#DejaVuSans-6f"/>
     <use x="614.404296875" xlink:href="#DejaVuSans-6d"/>
    </g>
   </g>
  </g>
 </g>
 <defs>
  <clipPath id="p01ea7e9bf2">
   <rect height="162.0" width="446.4" x="72.0" y="32.4"/>
  </clipPath>
 </defs>
</svg>
